<?xml version="1.0" standalone="no"?>
<!DOCTYPE svg PUBLIC "-//W3C//DTD SVG 20010904//EN"
 "http://www.w3.org/TR/2001/REC-SVG-20010904/DTD/svg10.dtd">
<svg version="1.0" xmlns="http://www.w3.org/2000/svg"
 width="300.000000pt" height="199.000000pt" viewBox="0 0 300.000000 199.000000"
 preserveAspectRatio="xMidYMid meet">
<metadata>
Created by potrace 1.10, written by Peter Selinger 2001-2011
</metadata>
<g transform="translate(0.000000,199.000000) scale(0.100000,-0.100000)"
fill="#000000" stroke="none">
<path d="M1395 1775 c-206 -38 -398 -163 -513 -332 -96 -141 -134 -264 -137
-443 -2 -155 -17 -195 -76 -205 -32 -6 -40 -12 -53 -45 -13 -33 -21 -39 -48
-42 -28 -3 -36 -10 -53 -45 -17 -38 -23 -43 -53 -43 -30 0 -35 -4 -49 -39 -14
-37 -19 -40 -57 -43 -39 -3 -41 -5 -58 -51 l-18 -49 345 7 c240 6 345 5 345
-3 0 -14 114 -103 181 -141 169 -95 394 -124 581 -75 131 33 284 121 373 213
l40 42 271 -3 c329 -4 320 -7 265 98 -32 61 -39 69 -63 67 -22 -1 -32 6 -53
43 -21 36 -31 44 -55 44 -24 0 -33 7 -50 40 -16 32 -26 40 -48 40 -23 0 -33 8
-51 40 -12 22 -25 40 -29 40 -4 0 -7 55 -7 123 -1 138 -19 217 -82 342 -157
310 -506 484 -848 420z m322 -25 c265 -63 484 -268 562 -524 25 -83 41 -212
34 -282 -5 -46 -7 -50 -28 -47 -13 3 -29 19 -38 39 -14 29 -22 34 -50 34 -29
0 -34 4 -47 43 -14 38 -18 42 -55 47 -35 4 -40 9 -49 40 -12 42 -21 50 -64 50
-28 0 -35 5 -47 35 -12 26 -23 36 -52 44 l-38 10 3 84 3 84 -128 43 -128 43
-165 -50 -165 -51 -3 -75 -3 -75 -49 -7 c-53 -7 -62 -15 -77 -59 -7 -22 -19
-32 -46 -40 -27 -8 -42 -20 -55 -46 -13 -28 -24 -36 -50 -38 -26 -3 -36 -11
-52 -41 -15 -30 -27 -40 -53 -45 -28 -5 -38 -14 -52 -46 -14 -31 -24 -40 -43
-40 l-25 0 5 133 c6 153 30 242 99 367 60 108 197 242 304 297 138 70 218 90
370 92 68 1 126 -5 182 -19z m-128 -284 c-7 -7 -231 -68 -235 -64 -4 5 194 65
220 67 11 0 17 -1 15 -3z m157 -37 c47 -17 83 -34 80 -36 -6 -6 -216 67 -216
74 0 8 41 -4 136 -38z m-154 -17 c-4 -28 -8 -30 -135 -60 -73 -18 -142 -35
-154 -38 -20 -5 -23 -2 -23 20 0 20 6 27 28 32 15 4 79 22 142 39 148 42 148
42 142 7z m140 -13 c83 -29 98 -37 98 -56 l0 -22 -67 20 c-38 11 -87 24 -110
30 -39 10 -43 14 -43 41 0 20 4 29 13 25 6 -2 56 -19 109 -38z m-139 -58 c-3
-11 -15 -22 -28 -25 -13 -3 -30 -9 -39 -12 -12 -5 -16 0 -16 19 0 26 12 32 67
36 16 1 20 -3 16 -18z m63 10 c16 -5 61 -19 100 -30 61 -18 72 -25 76 -46 3
-13 3 -26 1 -29 -3 -2 -25 3 -49 11 -30 10 -48 23 -54 39 -11 29 -30 32 -30 5
0 -19 -2 -19 -45 -4 -37 12 -45 19 -45 39 0 27 4 28 46 15z m-180 -59 c-4 -3
-13 3 -21 14 -14 19 -15 18 -34 -6 -16 -20 -21 -22 -35 -11 -13 11 -16 11 -16
-2 0 -15 -7 -19 -62 -31 -23 -5 -28 -3 -28 12 0 15 19 23 98 43 94 25 97 25
100 6 2 -10 1 -21 -2 -25z m106 -21 c4 -30 4 -30 -70 -46 -59 -13 -77 -14 -86
-4 -8 9 -8 10 1 5 6 -3 23 8 38 26 24 29 50 41 101 47 7 0 14 -12 16 -28z m59
10 c4 -3 10 -17 14 -30 7 -22 5 -23 -21 -17 -16 4 -29 8 -30 9 -1 1 -4 15 -8
30 -6 26 -5 28 16 22 13 -4 26 -10 29 -14z m468 -416 c215 -203 386 -372 380
-374 -6 -2 -52 0 -103 4 l-92 7 -16 41 c-11 32 -21 43 -40 45 -19 2 -30 14
-44 44 -12 27 -29 45 -49 54 -24 10 -35 23 -44 53 -10 33 -16 41 -36 41 -21 0
-26 7 -36 45 -10 40 -14 45 -40 45 -26 0 -30 5 -40 45 -10 38 -15 45 -35 45
-18 0 -27 8 -34 28 -16 44 -26 57 -47 60 -14 2 -24 16 -32 42 -8 28 -19 42
-35 46 -15 4 -27 16 -33 37 -5 20 -19 37 -36 45 -15 7 -27 17 -27 22 0 4 -3
17 -7 27 -11 29 26 -4 446 -402z m-684 382 c-8 -13 -13 -26 -9 -29 3 -3 0 -9
-7 -14 -8 -5 -10 -3 -4 7 19 30 -24 -13 -82 -83 -32 -39 -74 -90 -93 -113 -19
-23 -53 -63 -75 -90 -22 -26 -56 -67 -75 -90 -19 -23 -53 -64 -75 -90 -98
-119 -120 -140 -144 -146 -17 -4 -19 -7 -8 -8 26 -1 16 -24 -14 -32 -13 -4
-18 -7 -11 -8 8 -1 0 -18 -20 -46 l-33 -44 -94 -1 c-89 0 -93 1 -79 18 21 25
141 165 153 178 6 6 33 37 61 70 29 32 130 148 225 257 165 189 206 241 163
207 -18 -14 -18 -14 -5 3 8 9 16 15 19 12 3 -3 12 1 20 8 13 11 156 53 190 56
9 1 9 -5 -3 -22z m325 -9 c0 -5 5 -6 10 -3 6 3 15 3 22 -1 7 -4 22 -9 35 -10
13 -2 53 -29 90 -62 183 -161 458 -405 543 -482 105 -95 141 -126 185 -164
l30 -26 -67 0 c-62 0 -69 2 -108 37 -22 20 -38 43 -36 50 3 8 -2 13 -14 13
-23 0 -182 148 -174 162 3 5 1 7 -4 6 -10 -3 -168 142 -380 347 -62 61 -114
109 -116 108 -1 -2 -13 9 -27 23 -17 18 -19 23 -6 18 9 -3 17 -10 17 -16z
m-156 -67 c-8 -7 -183 -42 -224 -46 -23 -2 -39 -13 -51 -38 l-12 -22 24 21
c17 15 59 27 148 43 68 12 125 20 126 19 2 -2 5 -16 7 -33 l3 -30 -140 -22
c-77 -12 -151 -25 -164 -28 -21 -6 -23 -4 -11 10 7 8 11 18 8 20 -3 3 -29 -25
-59 -62 -215 -270 -442 -543 -451 -543 -6 0 9 24 34 53 24 28 159 192 300 362
147 178 264 312 275 313 10 1 54 10 98 20 l80 18 9 -24 c4 -13 4 -27 0 -31z
m-403 30 c-6 -10 -8 -20 -6 -23 3 -2 -21 -33 -53 -69 -31 -36 -171 -196 -311
-357 -140 -161 -259 -292 -264 -292 -9 0 86 114 104 126 5 3 9 10 9 17 0 6
-15 -3 -32 -20 -30 -28 -40 -31 -125 -37 -80 -6 -93 -5 -93 9 0 36 37 55 112
57 40 1 90 3 111 3 28 1 46 10 72 35 19 19 35 38 35 44 0 5 -15 -5 -34 -23
-34 -33 -39 -34 -158 -44 l-46 -4 15 33 c17 35 32 39 182 49 44 3 59 9 87 36
19 18 34 37 34 43 0 5 -16 -5 -35 -24 -31 -30 -44 -35 -103 -41 -37 -3 -68 -5
-70 -3 -2 1 4 16 12 32 15 28 21 31 93 39 43 4 86 8 96 7 15 -1 152 144 261
276 l21 25 -21 -18 c-19 -16 -44 -23 -44 -12 0 16 25 55 36 55 7 0 21 3 31 7
16 6 16 5 4 -10 -8 -10 -11 -20 -9 -23 8 -8 49 47 42 57 -6 10 14 51 30 61 20
13 27 8 17 -11z m511 -2 c10 -5 18 -19 18 -30 0 -19 -4 -21 -37 -15 -66 12
-73 16 -73 43 0 24 2 25 37 18 21 -4 46 -11 55 -16z m20 -70 c47 -10 57 -15
63 -36 3 -14 4 -27 1 -30 -8 -9 -156 21 -156 31 0 6 -3 22 -7 35 -5 22 -4 23
18 18 13 -4 50 -12 81 -18z m306 -17 c22 -28 13 -34 -17 -10 -17 13 -30 26
-30 30 -1 12 33 -3 47 -20z m-403 -73 c4 -17 5 -32 3 -33 -1 -1 -88 -15 -191
-30 -103 -15 -195 -30 -203 -33 -24 -9 -16 11 17 43 27 26 45 31 187 55 86 15
162 27 169 28 6 0 14 -13 18 -30z m82 17 c37 -8 84 -17 105 -20 29 -5 38 -13
47 -36 5 -17 7 -30 3 -30 -4 1 -54 9 -112 19 -104 18 -105 18 -111 49 -4 18
-5 32 -3 32 1 0 33 -6 71 -14z m-684 -41 c-20 -25 -36 -35 -55 -35 -67 0 -1
60 75 69 4 1 -5 -15 -20 -34z m1107 14 c20 -36 6 -41 -25 -9 -27 28 -28 30 -7
30 12 0 26 -9 32 -21z m-487 -76 c4 -20 5 -38 4 -39 -4 -4 -492 -61 -496 -58
-2 2 9 18 24 36 28 33 29 33 229 64 111 17 208 32 217 33 11 1 18 -10 22 -36z
m147 12 c140 -23 137 -22 143 -52 3 -16 4 -29 2 -31 -2 -2 -64 4 -139 14 -109
14 -136 21 -136 33 0 9 -3 27 -7 40 -5 21 -3 23 18 18 13 -3 67 -13 119 -22z
m-836 -27 c-16 -18 -30 -35 -31 -37 -2 -2 -23 -7 -48 -11 -43 -6 -45 -6 -39
14 3 12 10 26 16 31 7 8 83 29 122 34 6 0 -3 -14 -20 -31z m1281 -8 c9 -16 12
-30 7 -30 -4 0 -21 14 -37 30 -27 29 -28 30 -7 30 14 0 27 -11 37 -30z m-574
-71 c4 -18 6 -35 4 -37 -3 -3 -563 -62 -588 -62 -4 0 7 18 24 40 28 34 38 40
73 41 23 0 136 13 251 28 116 16 214 27 220 26 5 -1 13 -17 16 -36z m196 13
c79 -10 144 -20 146 -23 3 -2 7 -16 11 -31 6 -25 4 -28 -18 -28 -29 0 -309 29
-312 33 -1 1 -5 19 -9 40 -7 36 -6 38 16 32 13 -3 88 -14 166 -23z m451 8 c9
0 27 -16 40 -35 20 -31 20 -35 5 -35 -10 0 -35 16 -55 35 -41 38 -48 51 -22
41 9 -3 23 -6 32 -6z m-1437 -34 c-26 -27 -42 -35 -84 -39 -29 -3 -53 -4 -55
-2 -1 1 2 14 9 27 9 21 22 27 73 35 33 6 68 11 75 12 9 0 1 -14 -18 -33z m805
-73 c3 -16 8 -36 11 -45 3 -13 -2 -18 -19 -18 -13 0 -169 -11 -348 -25 -178
-13 -325 -23 -326 -22 -2 1 12 20 30 41 l32 39 274 27 c361 36 338 36 346 3z
m258 6 l139 -13 14 -34 c8 -19 12 -36 9 -39 -3 -4 -388 16 -392 21 -1 0 -5 21
-9 45 l-7 44 53 -6 c30 -3 116 -11 193 -18z m483 11 c7 0 19 -13 28 -30 15
-28 14 -30 -3 -30 -10 0 -34 16 -53 36 -32 35 -33 36 -9 31 14 -4 31 -7 37 -7z
m130 -109 c29 -33 29 -41 0 -41 -14 0 -39 16 -62 40 l-38 39 39 -5 c25 -4 47
-16 61 -33z m-853 2 c2 -10 7 -32 11 -49 l6 -30 -383 -18 c-211 -9 -392 -20
-402 -23 -17 -5 -17 -3 3 26 13 18 33 38 44 45 15 8 137 21 357 36 184 12 337
24 339 26 10 9 20 3 25 -13z m250 -3 c88 -5 171 -10 186 -10 20 0 30 -8 43
-35 9 -20 17 -37 17 -38 0 -6 -456 5 -461 11 -4 4 -10 26 -14 49 l-6 41 38 -4
c21 -2 110 -8 197 -14z m726 -110 c20 -39 26 -60 18 -60 -7 0 -42 27 -78 60
l-65 59 47 1 48 0 30 -60z m-957 13 c2 -4 7 -29 11 -54 l7 -46 -418 -7 c-230
-4 -433 -10 -452 -13 l-34 -6 21 29 c12 16 27 36 35 45 10 14 64 19 362 33
193 9 359 18 370 19 60 7 94 7 98 0z m403 -3 l132 0 15 -37 15 -38 -112 -7
c-61 -4 -180 -8 -264 -10 -168 -3 -154 -9 -167 66 l-6 39 128 -6 c70 -4 187
-7 259 -7z m-1556 -84 c-34 -33 -37 -34 -147 -41 l-112 -7 11 35 11 35 81 6
c113 9 180 11 186 8 2 -1 -12 -18 -30 -36z m1515 -63 c-166 -153 -351 -220
-574 -210 -178 8 -338 69 -463 176 l-57 49 132 6 c106 5 562 16 947 24 l65 1
-50 -46z"/>
</g>
</svg>
