<?xml version="1.0" standalone="no"?>
<!DOCTYPE svg PUBLIC "-//W3C//DTD SVG 20010904//EN"
 "http://www.w3.org/TR/2001/REC-SVG-20010904/DTD/svg10.dtd">
<svg version="1.0" xmlns="http://www.w3.org/2000/svg"
 width="295.000000pt" height="300.000000pt" viewBox="0 0 295.000000 300.000000"
 preserveAspectRatio="xMidYMid meet">
<metadata>
Created by potrace 1.10, written by Peter Selinger 2001-2011
</metadata>
<g transform="translate(0.000000,300.000000) scale(0.100000,-0.100000)"
fill="#000000" stroke="none">
<path d="M1426 2967 c-36 -36 -55 -101 -74 -247 l-17 -135 -104 -7 c-57 -5
-136 -17 -176 -28 -39 -11 -95 -20 -124 -20 -30 0 -65 -7 -84 -17 -27 -15 -64
-18 -239 -20 -114 -1 -216 -4 -227 -8 -12 -3 -33 4 -56 20 -33 21 -49 25 -116
25 -64 0 -79 -3 -79 -15 0 -11 -12 -15 -47 -15 -50 0 -86 -22 -76 -46 16 -41
149 -74 301 -74 l90 0 12 -36 c19 -56 106 -178 149 -208 39 -27 41 -27 182
-25 l144 3 87 -37 c48 -20 97 -37 108 -37 l22 0 -7 -253 c-8 -254 -8 -254 14
-260 15 -4 21 -13 21 -34 0 -16 5 -34 11 -40 7 -7 13 -59 14 -135 1 -68 7
-278 14 -468 6 -190 10 -439 9 -555 l-3 -209 -40 -9 c-22 -4 -50 -10 -62 -13
-18 -3 -23 -11 -23 -35 0 -24 3 -30 16 -25 9 3 25 6 35 6 11 0 18 4 14 9 -3 5
11 15 30 21 19 6 43 23 54 36 19 24 20 40 14 537 l-6 512 39 -35 c21 -20 56
-46 77 -58 39 -25 51 -40 16 -21 -18 9 -25 8 -40 -7 -17 -18 -18 -49 -21 -467
l-3 -448 25 -5 c14 -2 43 -9 65 -15 22 -6 49 -10 60 -9 11 1 31 2 45 1 110 -6
168 -5 184 2 39 18 129 25 155 11 14 -7 52 -20 84 -29 31 -9 55 -21 51 -26 -3
-5 3 -9 13 -9 10 0 28 -3 41 -6 19 -6 22 -3 22 24 0 28 -4 32 -37 38 -21 3
-54 9 -73 13 l-35 7 -6 89 c-4 50 -7 190 -8 311 -1 186 1 224 14 234 12 10 15
42 15 166 0 96 4 163 12 179 9 20 9 93 0 313 -7 158 -15 366 -19 463 l-6 175
74 27 c84 30 168 43 352 52 116 6 131 9 157 31 33 28 85 131 95 187 l7 37 63
0 c150 0 302 41 319 86 10 27 -39 56 -81 48 -20 -4 -33 -1 -42 10 -18 22 -116
21 -156 0 -46 -25 -181 -37 -380 -34 l-180 2 -132 44 c-75 26 -171 50 -224 57
-112 14 -107 5 -108 195 -1 194 -23 232 -134 232 -47 0 -62 -4 -81 -23z m168
-47 c38 -38 25 -188 -20 -237 -20 -22 -29 -25 -42 -16 -25 15 -21 47 6 51 18
3 22 8 16 20 -3 9 -7 26 -9 37 -1 12 -10 21 -22 23 -18 3 -20 8 -15 48 l5 44
-37 0 c-43 0 -46 11 -8 40 33 27 94 22 126 -10z m-127 -106 c5 -15 -28 -27
-40 -15 -5 5 -6 14 -2 21 8 13 37 9 42 -6z m-45 -77 c-11 -12 -22 -33 -25 -47
-3 -14 -5 -5 -4 20 1 64 5 72 29 59 20 -11 20 -11 0 -32z m51 -23 c9 -4 17
-15 17 -25 0 -29 -39 -24 -50 7 -13 33 -13 37 3 30 6 -3 20 -9 30 -12z m-11
-101 c31 -64 52 -67 80 -9 26 55 38 58 38 12 0 -23 7 -39 19 -48 18 -13 18
-16 2 -93 l-17 -80 -76 -3 -75 -3 -29 78 c-16 42 -30 81 -32 84 -2 4 7 9 20
11 20 3 23 10 26 51 2 26 7 47 12 47 5 0 20 -21 32 -47z m-141 -138 c44 -74
46 -80 27 -83 -15 -3 -34 11 -65 48 -25 28 -48 48 -51 45 -3 -3 12 -23 33 -45
61 -62 32 -59 -36 4 -34 31 -72 64 -85 73 -35 23 -30 31 24 36 104 9 102 10
153 -78z m54 20 c34 -91 37 -105 26 -105 -8 0 -101 153 -101 167 0 2 12 3 26
1 22 -2 30 -13 49 -63z m285 1 c0 -44 -5 -60 -26 -86 -15 -17 -28 -29 -31 -26
-2 2 1 24 7 47 6 24 16 61 21 82 14 54 29 45 29 -17z m41 -9 c2 -96 17 -120
18 -29 1 60 4 82 14 82 40 0 147 -27 263 -66 71 -24 138 -44 147 -44 25 0 21
-7 -20 -43 -21 -18 -79 -69 -130 -115 -51 -46 -93 -80 -93 -77 0 4 38 54 85
113 46 58 82 108 79 111 -2 3 -42 -32 -87 -77 -45 -45 -85 -82 -88 -82 -7 0
36 152 51 179 14 26 13 38 -2 23 -19 -19 -45 -14 -65 13 -18 25 -18 23 -16
-137 1 -90 8 -390 15 -668 16 -604 15 -559 3 -562 -6 -2 -14 111 -22 307 -15
409 -45 1039 -49 1044 -13 15 -12 -57 5 -500 11 -272 23 -577 26 -677 l7 -184
-24 8 c-12 4 -35 7 -50 6 -15 0 -30 2 -32 7 -3 4 -10 176 -16 382 -11 398 -37
969 -45 1007 -3 13 -3 27 0 33 13 20 25 -4 26 -54z m-528 -16 c79 -65 146
-131 132 -131 -31 0 -289 166 -280 180 4 6 22 10 41 10 29 0 50 -12 107 -59z
m-91 -23 c104 -69 155 -98 240 -134 37 -15 65 -31 63 -35 -8 -13 -126 -32
-165 -26 -44 6 -188 86 -303 170 -37 27 -71 47 -74 44 -3 -4 4 -23 16 -43 12
-20 20 -38 19 -40 -5 -4 -107 80 -107 90 -1 5 13 6 30 2 23 -4 38 0 57 15 22
17 37 20 84 17 49 -4 68 -12 140 -60z m-902 37 c0 -2 -5 -16 -12 -30 -10 -22
-16 -25 -42 -19 -49 10 -50 15 -10 34 39 18 64 24 64 15z m43 -29 c5 -11 18
-13 60 -9 37 4 57 2 62 -6 11 -18 1 -23 -55 -29 -56 -5 -104 17 -94 43 8 19
20 19 27 1z m416 -71 c50 -43 93 -76 96 -73 3 2 -31 36 -74 74 -44 38 -80 73
-80 77 -2 16 63 -6 80 -27 9 -11 36 -45 59 -73 23 -29 37 -53 30 -53 -6 0 -8
-4 -5 -10 12 -20 25 -9 25 21 0 17 3 29 8 27 57 -25 104 -39 110 -34 9 10 -12
25 -130 92 -54 30 -98 57 -98 60 0 2 15 4 33 4 24 0 55 -17 125 -69 74 -56 92
-66 92 -50 0 10 2 19 5 19 2 0 58 -32 124 -71 117 -69 120 -72 105 -93 -7 -12
-17 -50 -20 -85 -6 -52 -10 -61 -23 -55 -168 69 -222 84 -307 84 l-87 0 28 21
c21 17 25 27 20 48 -3 14 -7 35 -9 46 -2 14 -36 39 -116 83 -62 34 -114 61
-116 59 -1 -1 49 -47 112 -102 63 -55 112 -101 107 -102 -4 -1 -34 -6 -65 -11
l-57 -9 -64 81 c-60 78 -126 167 -141 193 -5 9 12 11 67 9 l74 -3 92 -78z
m2193 68 c49 -16 50 -16 27 -29 -36 -20 -55 -17 -73 11 -27 41 -25 42 46 18z
m-278 -25 c-13 -41 -85 -186 -97 -196 -7 -6 -46 -14 -87 -17 l-75 -8 83 78
c46 43 81 80 78 83 -3 2 -54 -31 -113 -75 -59 -44 -122 -89 -139 -101 -31 -21
-134 -54 -143 -46 -11 10 71 81 159 139 52 35 118 79 145 99 45 32 131 64 178
65 15 1 17 -4 11 -21z m200 -16 c-9 -13 -28 -18 -83 -20 -43 -2 -71 1 -71 7 0
20 39 31 84 25 37 -6 47 -4 52 10 5 13 10 14 18 6 7 -7 8 -15 0 -28z m-454 24
c0 -2 -85 -72 -189 -155 -104 -82 -193 -155 -196 -162 -11 -17 34 -1 75 27 32
22 36 23 48 7 21 -30 14 -38 -55 -61 -72 -23 -83 -22 -83 10 0 23 271 315 305
329 20 8 95 12 95 5z m90 -11 c0 -8 -213 -146 -217 -141 -9 8 131 132 155 137
36 9 62 10 62 4z m-730 -48 c0 -30 -9 -39 -97 -106 l-98 -73 -69 7 c-37 3 -78
10 -90 15 -20 7 -19 8 9 15 182 42 238 66 298 130 23 24 43 44 45 44 1 1 2
-14 2 -32z m-90 -14 c0 -17 -45 -50 -87 -64 -27 -9 -45 -9 -74 0 -36 11 -99
55 -99 69 0 4 58 7 130 7 93 0 130 -3 130 -12z m90 -80 c-1 -35 -4 -40 -48
-60 -53 -25 -112 -39 -111 -26 0 7 148 123 156 123 2 0 3 -17 3 -37z m-454
-147 c-3 -28 -12 -145 -21 -261 -18 -230 -25 -277 -40 -275 -11 1 -10 97 5
290 5 69 10 163 11 210 1 47 4 88 6 92 2 3 12 4 24 1 19 -5 20 -11 15 -57z
m1179 46 c62 3 64 2 51 -17 -15 -22 -69 -33 -179 -34 l-69 -1 29 23 c46 39 65
46 86 35 10 -5 47 -8 82 -6z m-727 -25 c4 -31 -20 -37 -53 -11 -20 15 -20 15
0 30 28 21 49 13 53 -19z m-387 -98 c4 -52 9 -203 12 -336 l6 -241 -45 30
c-51 34 -49 12 -29 263 8 104 17 234 21 288 8 128 27 126 35 -4z m119 37 c45
-30 124 -76 176 -101 l94 -46 0 -285 c0 -172 -4 -284 -9 -284 -16 0 -119 149
-193 277 -67 117 -164 330 -155 340 3 3 29 -13 59 -34 100 -74 219 -153 230
-153 6 0 -57 67 -140 149 -100 98 -152 156 -152 170 0 12 2 21 4 21 3 0 41
-25 86 -54z m190 24 c77 -50 82 -55 79 -73 -3 -15 -17 -10 -88 34 -60 37 -80
54 -70 60 21 13 31 11 79 -21z m-28 -56 c93 -53 116 -70 105 -80 -13 -14 -257
117 -257 138 0 18 52 -2 152 -58z m-203 -296 c82 -229 173 -427 256 -553 25
-37 45 -76 45 -85 0 -10 9 -48 21 -85 11 -37 19 -69 16 -71 -7 -7 -153 257
-200 361 -67 150 -187 479 -187 512 0 35 19 4 49 -79z m72 -517 c47 -98 59
-114 165 -218 63 -62 114 -117 114 -123 0 -18 -30 -5 -238 97 -149 73 -195
100 -206 121 -15 31 -29 122 -18 122 4 -1 22 -21 40 -45 38 -52 137 -137 193
-165 43 -22 51 -14 18 16 -47 42 -240 355 -223 361 27 10 33 25 38 88 3 39 6
72 6 75 1 3 14 -46 30 -109 18 -69 50 -156 81 -220z m-172 213 c2 -2 -2 -17
-9 -33 -11 -28 -9 -37 34 -117 25 -47 46 -88 46 -90 0 -2 -16 8 -36 21 -45 30
-46 30 -70 4 -19 -21 -19 -20 -26 92 -3 63 -10 130 -14 149 l-7 35 39 -29 c21
-16 41 -31 43 -32z m392 -99 c17 -6 19 -16 19 -103 -1 -91 -2 -96 -17 -77 -12
15 -138 264 -162 319 -2 5 29 -23 68 -62 40 -39 81 -74 92 -77z m-127 -177
c26 -50 11 -43 -25 13 -32 51 -98 210 -99 239 0 8 25 -38 54 -103 30 -64 62
-131 70 -149z m305 -128 c10 -5 25 -20 34 -33 16 -25 15 -25 -43 -61 -82 -51
-94 -49 -88 16 7 71 48 105 97 78z m-487 -130 c7 -148 -3 -790 -12 -790 -7 0
-10 151 -10 432 0 279 3 429 10 422 5 -5 11 -34 12 -64z m53 -370 c0 -314 -3
-404 -12 -407 -10 -4 -13 82 -13 407 0 325 3 411 13 408 9 -4 12 -94 12 -408z
m467 320 l-4 -81 -34 30 c-19 17 -46 34 -59 37 -31 8 -32 20 -2 30 12 4 38 20
57 35 19 16 37 29 40 29 3 0 4 -36 2 -80z m-408 54 c14 -5 16 -51 16 -413 l0
-407 -37 0 c-21 1 -62 -3 -90 -7 -32 -5 -53 -4 -53 2 0 5 19 12 43 16 23 3 53
8 67 11 l25 4 -3 400 c-2 254 0 400 7 400 5 0 16 -3 25 -6z m90 -40 c14 -13
16 -65 16 -415 l0 -399 -27 0 -28 0 0 415 c0 429 1 438 39 399z m67 -205 c4
-101 7 -266 8 -366 l1 -181 63 -7 c100 -12 114 -26 21 -21 -66 3 -85 1 -98
-12 -15 -15 -16 -5 -16 118 0 74 -3 254 -7 399 -5 225 -4 263 8 259 11 -4 15
-43 20 -189z m53 -226 c4 -180 3 -303 -2 -303 -5 0 -12 64 -16 142 -6 142 -10
544 -6 563 8 34 19 -142 24 -402z m50 375 c3 -7 7 -165 10 -350 6 -297 5 -338
-9 -338 -8 0 -17 10 -19 23 -3 12 -7 169 -11 350 -5 292 -4 327 10 327 9 0 17
-6 19 -12z m67 -213 c11 -353 12 -489 1 -493 -20 -6 -30 65 -31 213 -1 83 -4
226 -7 319 -7 161 -6 168 12 164 18 -3 19 -18 25 -203z m46 109 c2 -38 10
-197 19 -353 8 -155 13 -285 10 -288 -11 -11 -36 20 -40 51 -3 17 -8 174 -11
349 -4 256 -3 318 7 315 9 -3 14 -28 15 -74z m-377 -639 c0 -9 -9 -15 -25 -15
-18 0 -23 4 -19 15 4 8 15 15 25 15 10 0 19 -7 19 -15z"/>
<path d="M1530 2861 c0 -31 1 -32 38 -25 20 4 38 8 39 9 9 6 -27 35 -49 41
-26 6 -28 4 -28 -25z"/>
</g>
</svg>
