<?xml version="1.0" standalone="no"?>
<!DOCTYPE svg PUBLIC "-//W3C//DTD SVG 20010904//EN"
 "http://www.w3.org/TR/2001/REC-SVG-20010904/DTD/svg10.dtd">
<svg version="1.0" xmlns="http://www.w3.org/2000/svg"
 width="300.000000pt" height="212.000000pt" viewBox="0 0 300.000000 212.000000"
 preserveAspectRatio="xMidYMid meet">
<metadata>
Created by potrace 1.10, written by Peter Selinger 2001-2011
</metadata>
<g transform="translate(0.000000,212.000000) scale(0.050000,-0.050000)"
fill="#78c487" stroke="none">
<path d="M2835 4049 c-130 -17 -332 -56 -450 -87 -1020 -270 -1225 -398 -1422
-886 -12 -31 -56 -72 -101 -95 -161 -82 -93 -106 153 -53 104 23 149 23 263 1
199 -38 1115 -52 1115 -17 0 14 -5 25 -11 25 -45 -5 -89 6 -72 18 11 8 23 28
26 43 5 24 1 24 -25 3 -23 -20 -38 -20 -59 -3 -21 18 -30 15 -40 -11 -10 -26
-19 -28 -37 -10 -29 29 -82 30 -64 1 8 -12 -12 -5 -43 15 -34 22 -50 26 -40
10 11 -18 -1 -15 -35 7 -29 19 -47 44 -40 55 7 12 5 16 -5 11 -10 -6 -99 -17
-198 -25 -102 -7 -186 -24 -194 -37 -10 -15 -15 -16 -16 -2 0 12 -13 21 -30
21 -16 0 -30 -7 -30 -16 0 -9 -13 -17 -30 -17 -16 0 -30 10 -30 22 0 17 -7 17
-27 1 -15 -13 -31 -18 -37 -12 -6 6 -50 14 -98 18 -49 5 -92 10 -98 13 -5 2
-23 5 -40 6 -17 1 -32 24 -35 52 -4 45 -2 46 14 10 14 -32 18 -21 20 48 0 49
7 83 14 75 15 -14 119 128 112 152 -3 8 14 15 36 15 23 0 36 9 29 20 -7 11 2
20 19 20 18 0 31 17 31 40 0 28 14 40 45 41 25 0 62 13 83 29 21 16 46 24 55
18 9 -6 17 -1 17 11 0 11 14 21 30 21 17 0 30 10 30 21 0 12 9 16 20 9 11 -7
20 -2 20 11 0 18 8 17 30 -1 26 -21 29 -20 19 5 -7 19 -1 31 15 30 107 -5 177
7 164 28 -10 16 -4 20 18 11 20 -8 32 -3 29 11 -3 13 9 24 25 26 17 2 39 6 50
9 18 5 56 10 146 18 15 1 22 9 17 17 -5 8 19 17 54 20 34 2 66 13 69 23 4 11
20 15 35 9 16 -6 29 -2 29 9 0 24 142 52 235 47 41 -3 65 5 65 21 1 17 6 19
15 5 25 -35 102 -30 111 7 9 31 10 31 12 -1 2 -39 42 -49 42 -10 1 17 7 15 21
-5 17 -26 22 -26 40 5 12 19 39 35 61 35 22 0 35 -9 28 -20 -21 -34 14 -22 41
14 21 30 29 31 58 7 28 -24 37 -24 51 -2 10 18 29 21 53 10 51 -22 246 -27
259 -6 19 31 88 20 75 -13 -6 -16 -1 -30 11 -30 12 0 22 11 22 25 1 17 7 15
20 -5 18 -27 22 -27 40 0 17 26 19 25 20 -5 0 -19 8 -35 19 -35 10 0 22 16 27
35 8 31 10 32 12 1 2 -27 20 -33 92 -30 50 2 90 -3 90 -12 0 -9 11 -10 23 -2
16 10 19 3 10 -22 -12 -30 -9 -32 17 -10 23 19 30 19 30 0 0 -13 13 -19 29
-13 17 6 56 -11 88 -38 32 -27 66 -49 76 -49 9 0 4 9 -13 20 -16 11 -21 19
-10 19 25 0 102 -57 95 -70 -15 -27 -1 -49 30 -49 55 0 169 -77 153 -103 -9
-14 -5 -18 9 -9 14 9 32 -6 46 -37 13 -28 32 -51 44 -51 11 0 14 -6 7 -12 -24
-24 125 -199 212 -249 34 -20 34 -17 4 55 -255 615 -940 895 -1895 775z m-900
-1074 c-10 -30 -218 -58 -311 -41 -133 22 -21 54 223 63 69 2 94 -4 88 -22z"/>
<path d="M2494 3367 c-7 -7 -38 -16 -68 -21 -83 -13 -135 -22 -146 -27 -5 -2
-17 -3 -25 -1 -8 1 -15 -7 -15 -18 0 -11 -22 -20 -50 -20 -51 0 -202 -118
-152 -119 15 -1 39 -17 53 -36 18 -25 57 -36 132 -38 59 -2 130 -4 158 -5 28
-1 71 -20 94 -42 49 -45 75 -53 52 -15 -9 16 -3 15 20 -3 29 -24 51 -24 149 0
l114 28 -155 6 c-120 4 -155 12 -155 35 0 18 19 29 50 29 73 0 334 42 380 61
40 17 -283 10 -657 -13 -156 -10 -196 -8 -189 13 10 32 331 98 481 99 65 0
115 9 115 20 0 26 -97 64 -122 49 -10 -6 -18 -2 -18 10 0 23 -26 28 -46 8z"/>
<path d="M2765 3357 c-40 -40 -29 -72 28 -86 67 -17 105 16 74 65 -27 43 -71
52 -102 21z"/>
<path d="M3545 3278 c-66 -24 -55 -58 20 -61 36 -1 88 -4 117 -5 41 -3 50 4
43 33 -6 20 -14 33 -19 28 -5 -5 -33 -2 -63 6 -29 9 -74 8 -98 -1z"/>
<path d="M3148 3182 c-104 -77 -217 -199 -251 -271 -21 -46 -46 -63 -107 -75
-44 -9 -99 -26 -123 -38 -24 -13 -53 -17 -65 -9 -12 7 -55 -10 -96 -38 -42
-28 -90 -51 -108 -51 -17 0 -74 -22 -126 -50 -51 -27 -176 -73 -276 -102
l-183 -53 -132 41 c-152 47 -446 37 -549 -18 -53 -30 -63 -29 -140 10 -69 35
-126 43 -353 48 l-271 7 -26 -57 c-15 -31 -33 -101 -42 -156 -87 -542 -102
-669 -90 -750 15 -110 15 -95 1 -396 -8 -193 -5 -248 16 -255 14 -6 60 -56
102 -111 145 -189 301 -242 821 -277 176 -12 386 -31 466 -42 81 -10 202 -19
270 -19 132 -1 620 -64 779 -102 71 -16 103 -16 123 0 58 48 273 50 422 3 77
-24 236 -60 354 -80 146 -25 232 -50 268 -79 29 -23 69 -42 88 -42 18 0 49
-17 67 -37 59 -65 255 -73 380 -15 106 49 176 66 345 82 154 15 215 32 258 69
22 20 82 51 133 70 99 37 158 113 285 365 l52 104 123 -44 c119 -43 123 -43
145 -7 12 20 51 74 87 120 78 100 80 132 15 209 -28 33 -56 88 -63 123 -7 34
-34 79 -60 99 -52 41 -60 81 -23 118 18 18 13 68 -20 219 -24 107 -48 229 -55
271 -22 147 -313 634 -378 634 -15 0 -77 70 -137 155 -200 283 -321 384 -413
345 -49 -20 -68 -18 -119 12 -57 34 -62 34 -98 1 -34 -30 -41 -31 -64 -4 -14
17 -40 31 -58 31 -19 0 -45 11 -58 24 -18 18 -65 3 -204 -63 -121 -57 -197
-82 -232 -76 -55 11 -217 -31 -259 -66 -32 -26 -75 15 -149 141 -30 51 -76 96
-114 113 -81 34 -67 37 -158 -31z m195 -219 c50 -104 78 -132 172 -174 57 -26
65 -39 65 -108 0 -96 35 -126 44 -38 3 35 19 68 34 73 18 6 24 -1 17 -19 -8
-21 7 -28 57 -26 68 2 68 2 69 -89 1 -121 44 -296 92 -375 l38 -63 -8 206 -7
205 51 -9 c36 -7 54 -27 63 -68 7 -32 21 -58 32 -58 10 0 18 -10 18 -21 0 -12
-9 -16 -20 -9 -11 7 -20 1 -20 -14 0 -14 -15 -53 -32 -86 -114 -215 47 -507
289 -525 141 -10 233 -83 326 -260 65 -124 166 59 146 267 -16 167 -36 163
-59 -12 -23 -188 -34 -250 -42 -258 -46 -48 -52 411 -6 478 19 28 40 111 48
185 8 74 20 135 27 135 25 0 59 -101 48 -143 -7 -26 -3 -38 8 -31 11 6 33 -7
48 -30 48 -69 105 -117 155 -129 53 -13 51 -83 -6 -214 -14 -35 -41 -96 -58
-136 -50 -113 -42 -261 18 -349 34 -49 46 -89 38 -116 -17 -57 -15 -56 -78
-32 -31 12 -50 27 -43 34 17 17 -48 88 -68 75 -8 -5 -21 26 -29 69 -7 43 -33
95 -56 115 -43 36 -44 36 -11 -3 32 -39 61 -190 36 -190 -6 0 -27 16 -45 35
-154 163 -206 205 -257 205 -47 0 -59 11 -76 75 -20 77 -55 108 -184 168 l-74
34 22 -63 c12 -35 34 -86 48 -114 15 -27 27 -61 27 -74 0 -32 108 -106 155
-106 45 0 191 -153 264 -277 27 -46 57 -83 67 -83 10 0 53 -33 96 -74 119
-113 105 -189 -49 -266 -75 -38 -210 -158 -178 -159 16 -1 25 -31 25 -82 0
-85 -16 -100 -116 -108 -30 -2 -77 -11 -106 -19 -39 -11 -91 4 -215 63 -110
52 -169 71 -183 57 -33 -33 -24 -45 58 -69 48 -15 81 -38 88 -63 23 -87 -154
-24 -256 91 -53 61 -82 73 -255 108 -108 22 -223 54 -256 72 -85 44 -513 35
-526 -11 -5 -17 -9 -10 -11 15 -2 50 -22 57 -57 22 -16 -16 -31 -17 -49 -3
-14 11 -75 37 -136 56 -60 19 -120 43 -131 52 -12 9 -89 22 -170 29 -172 13
-316 45 -359 79 -16 13 -93 25 -170 27 -112 3 -147 12 -173 43 -18 22 -43 40
-54 40 -11 0 -34 20 -51 43 -28 40 -38 42 -106 22 -280 -80 -666 -42 -797 78
-68 63 -98 77 -165 77 -90 0 -120 26 -83 71 19 23 18 29 -4 30 -48 1 47 59 97
59 39 0 46 -10 46 -70 0 -52 9 -70 33 -70 18 0 43 -13 55 -29 31 -40 212 36
212 90 0 60 -233 221 -297 206 -67 -16 -103 -44 -103 -79 0 -16 -9 -28 -21
-28 -29 0 33 114 76 138 30 18 27 21 -20 21 -38 1 -56 12 -57 36 -1 19 -4 54
-6 78 -5 40 9 45 156 66 178 25 277 56 261 83 -6 9 28 37 75 62 76 40 81 46
39 52 -25 4 -62 -7 -81 -24 -76 -69 -440 -91 -383 -23 22 27 32 126 38 376 l3
114 60 -12 c71 -14 80 17 16 61 -93 66 91 123 221 68 101 -42 148 -46 98 -8
-76 58 -29 65 70 11 58 -32 124 -58 148 -59 23 0 54 -14 68 -31 14 -17 56 -44
93 -59 73 -31 137 -85 120 -103 -6 -6 4 -26 23 -45 18 -19 53 -59 78 -89 40
-48 98 -75 82 -38 -70 153 -130 252 -175 284 -31 22 -80 70 -108 108 l-53 68
65 -14 c35 -8 69 -15 74 -16 6 -1 33 -7 60 -13 175 -39 368 -28 529 31 128 48
183 58 275 51 63 -5 117 -1 120 7 3 9 29 20 56 24 64 10 200 77 200 99 0 9 11
16 25 16 14 0 78 41 142 92 135 106 148 105 89 -3 -23 -44 -70 -133 -105 -199
-34 -65 -83 -130 -109 -143 -26 -13 -87 -65 -135 -115 -104 -108 -106 -108
-263 81 -59 70 -115 127 -126 127 -49 0 -205 -177 -257 -291 -39 -86 -79 -140
-137 -181 -45 -32 -86 -73 -90 -91 -5 -18 -39 -39 -77 -47 -37 -8 -97 -41
-133 -73 -36 -31 -76 -58 -90 -58 -13 -1 -6 -10 16 -19 53 -23 204 -24 246 -3
19 10 90 13 159 8 l125 -10 0 -74 c0 -47 14 -87 37 -108 53 -49 71 -14 20 40
-57 61 -31 87 29 30 55 -51 74 -54 74 -13 0 17 7 30 15 30 8 0 16 23 18 50 1
28 -6 50 -18 50 -12 0 -12 10 2 27 18 21 13 35 -17 63 -55 50 -50 83 15 107
37 13 43 20 19 21 -101 5 -189 90 -119 116 50 18 64 46 65 123 0 42 18 89 48
125 l49 57 26 -59 c15 -33 34 -60 43 -60 16 0 74 -50 74 -64 0 -4 -31 -24 -69
-44 -93 -50 -96 -70 -29 -178 82 -132 167 -141 319 -34 41 30 88 40 179 40 98
0 122 6 114 28 -12 31 56 22 102 -14 15 -12 91 -24 170 -28 79 -4 189 -22 244
-39 55 -18 141 -38 190 -47 50 -8 104 -20 122 -28 19 -9 31 -4 31 12 0 23 -27
31 -137 37 -18 1 -30 12 -25 25 15 40 -68 81 -103 52 -23 -18 -35 -19 -53 -1
-17 17 -14 23 16 24 38 2 38 2 -1 19 -33 14 -34 17 -6 19 43 1 66 111 39 181
-19 46 -21 44 -22 -30 -2 -110 -27 -147 -72 -109 -31 26 -33 25 -22 -13 10
-32 2 -47 -36 -64 -93 -42 -108 -17 -96 154 7 103 2 170 -14 200 -21 40 -19
50 18 75 48 34 101 149 101 219 0 27 7 48 16 48 17 0 20 17 34 180 23 267 46
285 133 103z m988 -5 c6 -10 -5 -12 -25 -6 -31 9 -31 8 3 -14 22 -14 116 -25
220 -27 181 -3 242 -17 220 -52 -6 -11 0 -19 15 -19 23 0 49 -27 186 -198 24
-31 28 -43 10 -33 -17 10 20 -29 80 -87 61 -57 108 -112 105 -123 -3 -10 5
-19 16 -19 28 0 67 -40 84 -85 8 -19 24 -35 36 -35 12 0 16 -8 10 -19 -6 -10
-3 -24 8 -31 21 -12 161 -291 161 -319 0 -8 26 -72 59 -141 110 -239 120 -384
11 -169 -29 55 -65 106 -81 112 -17 7 -52 49 -79 95 -63 108 -142 182 -233
220 -40 17 -96 60 -125 96 -189 235 -246 295 -278 296 -20 0 -66 23 -102 50
-36 28 -89 50 -117 50 -28 0 -76 13 -108 30 -31 16 -72 30 -90 30 -17 0 -64
14 -104 30 -39 17 -106 30 -148 30 -51 0 -100 17 -145 50 -37 28 -87 50 -111
50 -44 0 -149 83 -149 118 0 10 -15 34 -34 53 -32 32 -28 33 55 18 115 -20
248 -21 349 -2 44 8 98 16 120 19 22 2 46 19 53 37 14 33 107 30 128 -5z
m-1271 -249 c0 -39 -8 -66 -19 -60 -10 6 -24 2 -31 -9 -7 -12 -2 -19 11 -15
13 3 29 -8 34 -23 7 -19 0 -25 -19 -17 -20 8 -28 -2 -27 -32 0 -24 -10 -41
-23 -38 -14 3 -20 -8 -13 -25 6 -17 2 -30 -10 -30 -11 0 -17 -17 -13 -39 5
-29 -1 -36 -25 -26 -21 8 -27 4 -17 -12 9 -14 2 -23 -17 -23 -17 0 -31 9 -31
20 0 11 -13 20 -28 20 -23 0 -24 9 -5 48 12 27 31 43 41 37 10 -6 12 -2 5 10
-17 28 6 88 29 74 10 -6 18 7 18 30 0 22 10 41 21 41 12 0 16 8 10 19 -9 15
82 121 104 121 3 0 5 -32 5 -71z m1260 -237 c0 -45 -23 -93 -39 -82 -21 12 -1
110 21 110 10 0 18 -13 18 -28z m160 -66 c0 -16 -8 -44 -17 -62 -25 -48 -45
-224 -27 -224 9 0 27 32 41 70 14 39 35 70 45 70 11 0 15 9 8 20 -20 33 30 23
66 -13 41 -41 48 -249 9 -262 -15 -5 -25 -45 -25 -102 -1 -128 -51 -181 -100
-103 -13 20 -19 22 -20 5 0 -24 -64 -1 -100 35 -5 6 -21 11 -35 12 -14 1 -39
3 -56 5 -46 5 -161 128 -176 190 -8 30 -23 49 -33 43 -12 -7 -15 12 -8 47 7
32 3 64 -9 71 -15 10 -15 29 0 68 55 136 61 143 129 140 37 -1 62 -9 57 -18
-5 -8 16 -24 46 -35 30 -11 44 -21 30 -21 -14 -1 -25 -11 -25 -22 0 -11 11
-18 25 -15 14 3 26 -16 27 -45 6 -217 7 -220 48 -220 25 0 39 13 38 35 -1 21
-5 25 -11 10 -46 -114 -55 64 -16 298 13 73 89 94 89 23z m-1719 -70 c32 -24
59 -54 59 -67 0 -29 140 -179 167 -179 37 0 37 -50 0 -53 -82 -6 -156 5 -169
26 -9 15 -17 15 -27 -1 -7 -12 -22 -22 -33 -22 -11 0 -14 11 -5 25 12 20 8 20
-16 1 -16 -14 -56 -24 -88 -24 -196 5 -358 -21 -389 -62 l-31 -42 -43 49 c-24
27 -37 56 -29 64 7 8 -7 8 -32 0 -28 -8 -45 -5 -45 8 0 12 16 27 35 33 19 6
51 19 70 30 23 12 48 10 75 -7 32 -20 48 -20 80 0 53 34 144 32 191 -4 106
-81 139 -17 49 93 l-60 73 70 23 c38 13 70 36 70 52 0 40 32 35 101 -16z
m-1082 -450 c-14 -42 -29 -89 -34 -106 -7 -23 -13 -21 -25 10 -10 27 -2 65 26
115 51 92 66 84 33 -19z m3612 -171 c16 -19 23 -35 17 -35 -7 0 1 -21 18 -46
159 -244 306 -593 249 -595 -139 -6 -266 -25 -277 -42 -9 -14 -31 -9 -65 13
l-53 35 1 402 0 403 41 -50 c22 -27 53 -66 69 -85z m-172 -267 c-1 -183 -10
-328 -21 -328 -17 0 -27 48 -19 90 3 11 -2 14 -10 6 -7 -8 -27 -1 -44 16 -16
16 -24 35 -18 42 7 7 -3 23 -21 36 -81 60 19 510 106 477 24 -10 29 -67 27
-339z m-834 9 c23 -12 69 -23 103 -25 48 -3 73 -21 119 -89 53 -79 107 -115
199 -134 20 -4 62 -35 93 -68 35 -37 77 -61 108 -61 27 0 62 -11 77 -25 33
-32 155 -80 200 -78 19 0 68 -16 108 -36 l75 -36 -59 -37 c-101 -66 -173 -145
-161 -177 7 -19 -5 -39 -33 -54 -24 -13 -55 -38 -68 -55 -14 -18 -25 -24 -25
-13 -1 10 -14 1 -30 -20 -17 -22 -30 -32 -30 -22 -1 9 -30 -1 -66 -22 -72 -42
-145 -44 -181 -5 -19 20 -18 22 6 9 25 -14 26 -12 4 15 -22 27 -17 38 35 75
43 31 61 36 62 17 1 -14 10 -5 20 20 10 26 28 41 39 34 11 -7 15 1 8 19 -7 17
-4 31 7 31 10 0 17 20 15 45 -2 25 6 52 18 60 15 10 14 14 -3 15 -14 0 -25 20
-25 45 0 31 -39 77 -120 144 -66 54 -120 105 -120 114 0 53 -286 277 -354 277
-23 0 -102 59 -80 59 9 1 36 -9 59 -22z m-2950 -540 c-3 -13 24 -32 60 -43 36
-11 65 -27 65 -36 0 -9 17 -33 38 -52 43 -39 -27 -45 -166 -13 -42 9 -54 6
-43 -11 11 -18 -8 -22 -72 -14 -48 5 -103 10 -123 11 -20 0 -31 10 -24 22 7
11 24 19 37 17 80 -10 140 3 117 26 -18 18 -46 17 -124 -8 -55 -18 -100 -24
-100 -13 0 11 -16 10 -39 -2 -21 -12 -50 -21 -64 -21 -79 0 143 78 244 85 119
9 190 35 97 35 -38 1 -42 5 -18 20 42 27 121 25 115 -3z"/>
<path d="M3370 2604 c0 -103 4 -115 45 -120 46 -7 62 23 25 46 -11 7 -20 32
-21 56 0 24 -11 64 -25 88 -21 38 -24 29 -24 -70z"/>
<path d="M3693 2535 c20 -107 10 -364 -17 -433 l-20 -52 -20 50 c-10 28 -14
90 -7 139 16 122 -23 81 -47 -50 -14 -74 -12 -111 8 -149 15 -27 47 -97 72
-155 58 -136 78 -133 78 13 0 135 17 200 41 160 8 -13 10 -109 4 -211 -8 -139
-5 -187 13 -187 14 0 19 9 12 20 -7 11 2 14 21 7 36 -14 36 -23 -3 231 -7 43
-3 83 8 90 12 7 -2 65 -37 149 -50 118 -55 146 -37 211 17 61 14 92 -16 163
-46 113 -74 115 -53 4z"/>
<path d="M3482 2304 c-1 -26 -10 -41 -20 -35 -10 6 -14 -7 -8 -29 6 -22 2 -51
-9 -65 -26 -33 -46 -118 -25 -105 10 6 21 -10 26 -35 5 -27 10 -15 11 32 2 58
12 79 43 87 22 6 34 20 26 33 -8 12 -20 53 -28 92 -9 47 -14 55 -16 25z"/>
<path d="M854 2288 c-15 -16 25 -128 69 -191 20 -29 37 -66 37 -81 0 -68 196
-224 250 -200 29 13 74 24 102 24 51 0 148 53 148 80 0 9 -36 11 -80 5 -51 -6
-80 -2 -80 11 0 12 -31 28 -69 35 -103 20 -132 63 -70 110 l49 36 -57 22 c-30
11 -72 21 -92 21 -20 0 -48 14 -62 31 -39 47 -132 109 -145 97z"/>
<path d="M460 2222 c0 -20 23 -70 50 -110 28 -41 50 -90 50 -109 0 -53 41 -83
114 -83 l66 0 -66 86 c-36 48 -78 114 -91 148 -32 75 -123 126 -123 68z"/>
<path d="M3928 2093 c-26 -29 -10 -149 39 -293 25 -75 31 -81 32 -35 0 30 -14
91 -31 135 -20 50 -29 109 -22 151 13 77 13 77 -18 42z"/>
<path d="M2736 1825 c-53 -56 -51 -115 2 -115 16 0 32 -11 37 -25 5 -15 -9
-25 -33 -25 -57 0 -53 -22 17 -89 40 -38 72 -53 100 -46 22 6 41 3 41 -7 0
-10 -13 -18 -30 -18 -16 0 -30 -9 -30 -20 0 -11 43 -20 95 -20 60 0 85 -7 68
-18 -31 -19 12 -42 81 -42 22 0 58 -23 80 -51 22 -28 55 -49 73 -47 18 2 60
-8 93 -23 l60 -27 -55 -7 c-102 -14 -35 -45 96 -45 120 0 129 -3 129 -45 1
-44 128 -155 178 -155 12 0 22 -8 22 -17 0 -27 -97 -63 -171 -63 -38 0 -69
-10 -69 -22 0 -24 92 -12 224 28 117 36 88 98 -125 271 -27 22 -43 46 -35 54
14 14 77 -33 229 -172 66 -60 80 -86 72 -127 -11 -59 40 -72 102 -26 33 23 32
28 -16 73 -28 26 -51 64 -51 83 0 19 -18 41 -40 48 -22 7 -40 21 -40 32 0 12
16 11 40 -2 22 -12 55 -19 73 -16 35 6 103 -90 106 -149 1 -41 3 -41 68 -16
48 18 40 120 -13 174 -8 7 -14 23 -13 35 0 12 11 8 25 -10 34 -45 134 -67 134
-31 0 33 -75 58 -190 65 -145 8 -210 30 -210 70 0 46 -56 50 -111 9 -37 -29
-37 -30 15 -30 29 -1 59 -10 66 -21 7 -12 -15 -20 -54 -20 -68 0 -187 63 -163
87 8 7 -19 14 -60 16 -40 2 -84 4 -98 5 -29 2 -95 78 -95 109 0 12 -18 31 -40
43 -22 12 -40 38 -40 57 0 20 -22 57 -49 82 -26 25 -44 57 -38 72 21 53 -88
100 -135 57 -38 -35 -39 -37 -4 -51 32 -12 31 -14 -8 -16 -24 0 -49 8 -56 19
-7 11 -46 21 -86 23 -68 3 -69 4 -14 12 96 14 156 85 72 85 -21 0 -43 14 -49
30 -20 50 -120 36 -177 -25z m344 -245 c0 -11 -22 -20 -49 -20 -27 0 -54 9
-61 20 -7 12 13 20 49 20 33 0 61 -9 61 -20z m100 -63 c0 -24 -195 -21 -210 3
-8 12 30 19 99 17 61 -1 111 -10 111 -20z"/>
<path d="M903 1805 c-2 -36 5 -65 15 -65 10 0 33 -5 50 -12 18 -7 32 -3 32 8
0 10 -17 24 -38 29 -21 6 -43 32 -48 58 -7 37 -9 33 -11 -18z"/>
<path d="M2201 1800 c6 -54 -25 -120 -58 -122 -21 -1 -24 -5 -8 -11 46 -19 26
-44 -38 -51 l-64 -6 96 -78 96 -78 -14 63 c-9 38 -6 63 6 63 40 0 52 180 14
217 -29 28 -34 28 -30 3z"/>
<path d="M3360 1804 c0 -11 20 -33 45 -51 44 -30 43 -31 -42 -32 -74 -1 -84 4
-64 27 29 35 2 54 -56 39 -52 -14 -57 -46 -8 -49 21 -1 25 -5 10 -11 -36 -15
-10 -47 37 -47 22 0 44 -13 51 -30 13 -34 187 -44 187 -10 0 11 -27 20 -60 20
-33 0 -60 9 -60 20 0 11 18 20 40 20 57 0 49 31 -20 80 -33 23 -60 34 -60 24z"/>
<path d="M3460 1784 c0 -25 112 -84 161 -84 33 0 21 13 -49 50 -103 55 -112
57 -112 34z"/>
<path d="M835 1698 c-19 -11 -35 -33 -35 -49 0 -40 9 -37 72 21 54 50 31 68
-37 28z"/>
<path d="M3600 1639 c0 -43 3 -44 48 -27 45 17 40 59 -8 63 -27 2 -40 -10 -40
-36z"/>
<path d="M3860 1642 c17 -9 64 -23 106 -31 43 -7 95 -35 119 -62 23 -27 49
-49 57 -49 41 0 -103 123 -163 140 -88 25 -163 26 -119 2z"/>
<path d="M1280 1612 c0 -15 -20 -34 -45 -43 -36 -13 -26 -17 50 -24 65 -5 95
-16 95 -35 0 -16 18 -38 39 -50 23 -12 35 -33 28 -50 -13 -34 24 -41 43 -9 7
11 28 18 47 15 26 -5 34 13 39 83 5 63 12 81 25 60 15 -24 18 -22 19 8 0 32
-11 36 -70 25 -225 -39 -212 -39 -224 6 -12 47 -46 58 -46 14z"/>
<path d="M790 1584 c-11 -10 -54 -30 -95 -43 -42 -13 -70 -33 -64 -43 7 -10
20 -13 31 -7 10 6 24 -16 31 -50 13 -68 47 -83 47 -22 0 22 18 49 40 61 43 23
88 10 70 -20 -6 -9 -2 -23 10 -30 11 -7 20 8 20 36 0 31 17 55 47 69 43 20 46
17 38 -27 -6 -27 0 -48 13 -48 12 0 22 17 22 38 0 38 46 70 68 47 7 -6 12 -27
12 -45 0 -40 172 -88 194 -54 7 12 23 5 39 -17 25 -34 27 -31 27 27 l0 64
-119 0 c-88 0 -124 8 -137 32 -21 38 -262 64 -294 32z"/>
<path d="M3335 1588 c-8 -8 -15 -30 -15 -49 0 -40 104 -76 116 -40 10 28 44 6
44 -29 0 -15 -25 -31 -55 -36 l-55 -8 60 -5 c60 -5 60 -5 10 -21 -47 -15 -46
-16 16 -18 40 -1 61 6 54 18 -20 32 22 23 50 -10 14 -16 40 -30 57 -29 23 0 9
22 -42 70 -41 38 -75 79 -75 91 0 11 -16 19 -35 17 -72 -7 -102 2 -109 33 -3
17 -13 25 -21 16z"/>
<path d="M1780 1532 c0 -31 56 -83 72 -67 13 13 -36 95 -57 95 -8 0 -15 -12
-15 -28z"/>
<path d="M3561 1501 c-12 -8 8 -41 49 -81 53 -51 64 -73 47 -93 -17 -21 -11
-27 28 -27 98 0 110 55 27 123 -41 34 -69 67 -63 73 6 6 41 -15 76 -47 36 -32
54 -46 40 -30 -14 16 -25 45 -25 65 0 36 -128 48 -179 17z"/>
<path d="M3785 1495 c5 -14 21 -26 37 -27 61 -4 66 -13 18 -29 -40 -13 -32
-16 41 -14 50 1 102 -5 115 -13 14 -8 24 -3 24 14 0 16 -18 34 -40 40 -22 6
-40 2 -40 -8 0 -35 -35 -18 -46 22 -7 27 -27 40 -64 40 -34 0 -50 -9 -45 -25z"/>
<path d="M525 1460 c28 -46 62 -43 71 7 5 24 -7 33 -45 33 -46 0 -49 -4 -26
-40z"/>
<path d="M1691 1461 c-19 -21 -29 -48 -22 -60 9 -13 -16 -21 -68 -21 -59 0
-81 -8 -81 -30 0 -53 147 -38 218 21 52 45 57 57 37 90 -31 49 -40 49 -84 0z"/>
<path d="M2035 1448 c-31 -31 -15 -88 25 -88 22 0 40 -9 40 -20 0 -11 9 -20
20 -20 37 0 21 64 -19 74 -21 6 -42 23 -45 40 -3 16 -13 23 -21 14z"/>
<path d="M2431 1399 c6 -11 26 -19 44 -19 18 0 53 -19 78 -43 l46 -43 20 54
c12 30 21 58 21 62 0 4 -50 7 -110 7 -63 0 -106 -8 -99 -18z"/>
<path d="M2300 1359 c0 -23 -10 -60 -22 -83 -26 -48 8 -82 68 -68 39 10 162
-138 142 -170 -5 -10 -6 -18 0 -18 101 0 -20 219 -137 248 -36 9 -43 22 -35
72 5 33 3 60 -4 60 -6 0 -12 -19 -12 -41z"/>
<path d="M3790 1380 c7 -11 62 -20 122 -20 69 0 106 8 98 20 -7 11 -62 20
-122 20 -69 0 -106 -8 -98 -20z"/>
<path d="M1935 1353 c-22 -54 63 -221 97 -188 5 5 -9 31 -30 58 -21 27 -42 76
-45 108 -6 48 -10 52 -22 22z"/>
<path d="M2740 1310 c0 -39 -9 -86 -20 -105 -73 -127 -160 -434 -131 -463 17
-16 35 -25 40 -20 15 15 110 381 115 444 6 66 27 68 78 9 37 -43 37 -41 -1 30
-43 80 -40 87 20 54 42 -22 50 -7 21 39 -10 15 -32 22 -50 16 -21 -9 -32 -2
-32 19 0 20 11 27 31 19 18 -6 26 -3 19 8 -32 52 -90 20 -90 -50z"/>
<path d="M2360 1330 c-21 -25 -17 -30 22 -30 25 0 75 -28 111 -63 59 -57 67
-60 80 -27 31 81 -157 187 -213 120z"/>
<path d="M3970 1340 l-100 -14 104 -3 c57 -2 109 6 116 17 7 11 5 19 -4 17 -9
-2 -61 -9 -116 -17z"/>
<path d="M2001 1311 c-17 -20 -14 -29 10 -39 35 -13 69 0 69 27 0 30 -57 39
-79 12z"/>
<path d="M2906 1299 c3 -49 61 -44 70 6 5 24 -6 35 -33 35 -28 0 -40 -12 -37
-41z"/>
<path d="M1828 1293 c7 -20 12 -71 12 -114 0 -87 68 -151 102 -96 42 66 -7
148 -52 88 -28 -36 -30 -35 -30 30 0 38 -10 83 -22 99 -18 25 -20 24 -10 -7z"/>
<path d="M3990 1299 l-100 -13 115 -3 c63 -2 115 -11 115 -21 0 -25 114 -68
139 -53 36 23 23 48 -19 37 -22 -6 -40 -1 -40 12 0 12 -16 22 -36 22 -20 0
-45 7 -55 15 -10 9 -64 10 -119 4z"/>
<path d="M1370 1280 c7 -11 75 -20 151 -20 79 0 139 9 139 20 0 12 -64 20
-151 20 -96 0 -147 -7 -139 -20z"/>
<path d="M900 1209 c0 -43 8 -66 20 -59 11 7 20 39 20 71 0 33 -9 59 -20 59
-11 0 -20 -32 -20 -71z"/>
<path d="M811 1222 c-16 -26 9 -125 28 -112 16 9 12 106 -5 123 -6 5 -16 0
-23 -11z"/>
<path d="M1320 1213 c0 -26 81 -53 158 -53 18 0 44 18 57 40 24 38 20 40 -95
40 -88 0 -120 -7 -120 -27z"/>
<path d="M1160 1151 c0 -18 -11 -31 -25 -28 -37 7 -115 -23 -115 -44 0 -11 14
-19 30 -19 17 0 30 -9 30 -20 0 -34 331 -25 360 10 43 52 9 84 -103 95 -59 5
-123 16 -142 25 -25 10 -35 5 -35 -19z"/>
<path d="M1742 1130 c-16 -222 -15 -232 24 -253 61 -33 122 39 105 121 -12 53
-21 60 -61 50 -43 -11 -48 -4 -55 65 -7 66 -9 68 -13 17z"/>
<path d="M2184 1111 c-30 -66 -7 -79 153 -86 l126 -5 -46 58 c-36 44 -59 55
-100 48 -28 -6 -58 0 -66 12 -21 35 -43 26 -67 -27z"/>
<path d="M4299 1090 c-1 -22 -7 -29 -12 -15 -6 14 -39 25 -74 24 -62 0 -62 -1
-23 -35 22 -19 43 -65 47 -104 8 -87 10 -88 63 -60 24 13 38 35 32 51 -5 15
-2 33 9 40 27 17 23 55 -10 100 -29 38 -30 38 -32 -1z"/>
<path d="M3064 1057 c5 -15 34 -30 65 -34 39 -4 53 2 47 20 -5 15 -34 30 -65
34 -39 4 -53 -2 -47 -20z"/>
<path d="M2365 984 c-153 -9 -131 -83 25 -84 22 0 52 19 67 42 32 51 36 49
-92 42z"/>
<path d="M2860 881 c0 -107 4 -119 45 -125 55 -7 70 -78 26 -115 -26 -22 -31
-20 -31 8 0 19 -13 47 -30 64 -27 27 -30 23 -30 -30 0 -79 22 -90 152 -74 125
16 129 24 48 111 -73 78 -73 80 -10 80 55 0 63 19 26 56 -43 43 -96 29 -96
-26 0 -27 -9 -50 -20 -50 -11 0 -20 44 -20 98 0 68 -9 101 -30 109 -25 10 -30
-10 -30 -106z"/>
<path d="M2962 951 c28 -28 141 -49 133 -25 -5 13 -39 27 -77 31 -37 3 -62 1
-56 -6z"/>
<path d="M3320 894 c0 -36 54 -107 69 -92 16 16 -30 118 -52 118 -9 0 -17 -12
-17 -26z"/>
<path d="M2144 822 c11 -92 254 -81 256 11 0 15 -48 26 -131 30 -128 7 -131 6
-125 -41z"/>
<path d="M3920 864 c0 -10 -40 -30 -90 -44 -49 -14 -90 -34 -90 -45 0 -13 -8
-13 -25 0 -36 29 -182 53 -166 27 7 -11 44 -26 83 -34 39 -7 76 -25 81 -40 30
-77 290 -83 358 -7 19 21 46 39 60 39 39 0 230 93 217 106 -7 6 -52 -6 -101
-27 -50 -22 -103 -39 -119 -39 -16 0 -49 -13 -74 -29 -86 -56 -294 -80 -294
-33 0 7 45 29 100 48 98 35 121 59 80 84 -11 7 -20 4 -20 -6z"/>
<path d="M3140 815 c0 -8 36 -15 80 -15 44 0 80 9 80 20 0 10 -36 17 -80 15
-44 -3 -80 -12 -80 -20z"/>
<path d="M4631 802 c-20 -33 41 -66 66 -35 13 14 17 33 9 40 -18 19 -62 16
-75 -5z"/>
<path d="M4281 718 c-38 -32 -84 -58 -102 -58 -18 0 -49 -18 -69 -40 -20 -22
-54 -40 -76 -40 -38 0 -38 -2 -6 -38 32 -35 105 -37 132 -3 6 7 42 34 80 61
103 69 135 107 122 144 -10 27 -23 23 -81 -26z"/>
<path d="M3219 722 c15 -28 14 -41 -3 -47 -35 -11 0 -55 45 -55 32 0 36 10 26
60 -14 71 44 83 145 31 67 -35 95 -20 39 21 -65 47 -278 39 -252 -10z"/>
<path d="M4484 685 c3 -19 27 -38 53 -42 41 -5 44 -2 24 35 -27 51 -87 57 -77
7z"/>
<path d="M3440 640 c0 -11 17 -20 38 -20 20 0 53 -23 71 -52 47 -71 63 -45 19
31 -35 59 -128 89 -128 41z"/>
<path d="M3790 540 c73 -75 126 -97 156 -67 13 13 -181 146 -215 146 -11 1 16
-35 59 -79z"/>
<path d="M4314 587 c-8 -7 10 -25 39 -40 64 -33 81 -24 37 21 -35 34 -56 40
-76 19z"/>
<path d="M4439 518 c-26 -49 -12 -98 29 -98 47 0 59 40 21 68 -19 14 -29 36
-21 49 8 13 10 23 4 23 -6 0 -21 -19 -33 -42z"/>
<path d="M4140 452 c0 -16 137 -88 148 -78 16 16 -79 86 -116 86 -18 0 -32 -4
-32 -8z"/>
<path d="M612 2743 l-32 -61 70 29 c71 30 118 28 298 -14 65 -15 160 -17 290
-5 105 9 318 18 472 19 304 3 471 23 427 52 -45 28 -389 20 -723 -17 -304 -33
-323 -33 -480 2 -289 64 -287 64 -322 -5z"/>
<path d="M3095 315 c-61 -47 -64 -127 -8 -184 62 -62 92 -64 161 -9 35 28 62
36 78 23 46 -35 110 -24 123 21 l13 44 18 -45 c19 -47 60 -62 60 -23 0 16 8
16 25 3 54 -43 150 -26 150 26 0 28 -12 49 -27 49 -16 0 -27 -7 -26 -15 7 -43
-5 -48 -32 -14 -24 31 -33 34 -47 12 -13 -19 -22 -21 -32 -5 -18 29 -230 24
-233 -6 -1 -12 -9 1 -18 28 -16 49 -16 49 -18 4 -2 -46 -2 -46 -50 9 -41 48
-52 52 -80 29 -17 -15 -32 -20 -32 -11 0 9 -13 -1 -29 -22 -39 -52 -40 -10 -1
45 17 24 55 47 85 52 55 8 55 8 4 11 -28 2 -66 -8 -84 -22z"/>
<path d="M2038 223 c-76 -62 -26 -99 128 -95 111 2 125 7 130 46 6 39 -3 43
-75 42 -45 0 -94 9 -109 22 -20 17 -38 14 -74 -15z"/>
<path d="M2322 190 c-1 -59 4 -72 18 -50 17 26 19 25 20 -5 0 -64 117 -28 145
45 9 22 12 19 13 -10 2 -35 17 -40 122 -44 l120 -3 0 71 c0 63 -4 68 -32 44
-22 -18 -84 -25 -200 -22 -123 3 -169 -3 -170 -21 -1 -14 -9 -2 -18 25 -14 43
-16 39 -18 -30z"/>
<path d="M2820 195 c0 -77 30 -97 76 -51 13 13 30 17 38 9 8 -9 3 -23 -12 -32
-17 -10 -19 -21 -6 -29 22 -13 84 60 84 97 0 12 -33 23 -74 26 -41 3 -81 17
-90 30 -9 15 -16 -6 -16 -50z"/>
<path d="M3741 178 c-1 -48 6 -53 69 -50 75 2 79 6 50 52 -17 27 -19 27 -20 0
0 -24 -4 -25 -18 -3 -14 22 -20 22 -33 1 -12 -19 -20 -16 -31 13 -13 33 -15
32 -17 -13z"/>
</g>
</svg>
