<?xml version="1.0" standalone="no"?>
<!DOCTYPE svg PUBLIC "-//W3C//DTD SVG 20010904//EN"
 "http://www.w3.org/TR/2001/REC-SVG-20010904/DTD/svg10.dtd">
<svg version="1.0" xmlns="http://www.w3.org/2000/svg"
 width="300.000000pt" height="263.000000pt" viewBox="0 0 300.000000 263.000000"
 preserveAspectRatio="xMidYMid meet">
<metadata>
Created by potrace 1.10, written by Peter Selinger 2001-2011
</metadata>
<g transform="translate(0.000000,263.000000) scale(0.100000,-0.100000)"
fill="#000000" stroke="none">
<path d="M1640 2610 c-25 -25 -29 -96 -5 -86 8 3 15 1 15 -4 0 -6 -7 -10 -15
-10 -12 0 -13 -4 -4 -18 10 -16 4 -26 -42 -69 -30 -28 -70 -63 -89 -79 -73
-59 -190 -166 -190 -174 0 -5 9 -12 21 -15 12 -4 18 -12 15 -21 -3 -8 -4 -14
-1 -14 2 0 57 53 122 118 65 65 136 132 158 149 22 18 35 32 29 32 -7 1 -34
-17 -60 -39 -27 -22 -55 -40 -62 -40 -8 0 10 19 39 43 28 23 61 49 72 58 14
11 17 22 12 37 -5 17 -2 22 13 22 15 0 18 -6 16 -36 -2 -24 1 -34 9 -31 7 2
12 18 12 35 0 29 2 31 48 37 27 4 51 4 54 1 4 -3 5 -33 4 -66 -1 -38 2 -60 8
-60 7 0 11 27 11 70 l0 70 -85 0 c-107 0 -113 18 -7 23 l77 3 -87 2 c-96 2
-108 12 -67 53 l21 21 12 -23 c15 -31 46 -38 46 -10 0 12 5 21 10 21 6 0 10
-9 10 -20 0 -11 4 -20 9 -20 5 0 16 -3 25 -6 12 -5 16 0 16 20 0 16 6 26 14
26 11 0 16 -14 18 -47 3 -48 3 -48 55 -66 39 -15 53 -25 59 -45 4 -15 7 -30 6
-33 0 -3 18 -5 41 -5 39 1 42 -1 45 -26 2 -20 10 -30 27 -34 14 -3 25 -15 27
-27 2 -14 11 -23 25 -25 13 -2 27 -15 35 -32 7 -16 22 -31 33 -32 13 -2 21
-12 23 -30 3 -24 8 -28 33 -28 24 0 29 -4 29 -25 0 -20 5 -25 24 -25 17 0 25
-7 28 -23 4 -21 1 -23 -21 -19 -17 3 -23 1 -16 -5 15 -15 65 -25 65 -13 0 19
28 10 33 -10 3 -13 14 -20 29 -20 16 0 29 -8 35 -22 8 -17 30 -29 81 -45 l71
-22 48 21 47 21 17 -22 c10 -12 38 -29 63 -37 24 -9 56 -26 71 -40 14 -13 36
-24 49 -24 13 0 40 -11 60 -25 25 -17 36 -20 36 -11 0 8 -21 24 -47 36 -27 12
-59 28 -73 36 -14 9 -48 26 -77 40 -28 13 -57 31 -63 39 -16 19 -63 19 -101
-1 -28 -14 -35 -14 -94 6 -41 14 -69 30 -79 46 -9 13 -23 24 -31 24 -8 0 -24
9 -35 20 -11 11 -26 17 -35 14 -11 -5 -15 1 -15 20 0 19 -6 27 -24 32 -15 3
-26 14 -28 27 -2 15 -12 23 -33 27 -24 4 -30 10 -30 30 0 18 -6 26 -23 28 -12
2 -29 16 -37 33 -9 17 -24 29 -35 29 -12 0 -20 8 -22 23 -2 14 -11 23 -25 25
-18 3 -23 10 -23 32 0 26 -4 29 -45 36 l-45 6 0 59 c0 59 0 59 -37 77 -21 9
-40 20 -41 25 -8 17 -22 -7 -22 -39 0 -38 16 -46 23 -11 l4 22 2 -22 c1 -25
21 -32 21 -8 0 20 16 19 24 -1 14 -36 7 -47 -26 -40 -18 3 -43 13 -56 22 -19
13 -23 22 -20 57 2 34 0 42 -16 45 -12 3 -26 -5 -37 -19 -15 -20 -19 -21 -19
-6 0 11 -8 17 -21 17 -12 0 -28 -8 -35 -17 -12 -17 -13 -16 -14 5 0 29 -42 30
-70 2z m-186 -349 c8 -12 -41 -54 -53 -46 -16 9 -3 25 19 25 13 0 17 5 14 15
-6 16 11 21 20 6z m-70 -82 c-9 -10 -22 -15 -30 -12 -13 5 -12 8 2 24 9 10 22
15 30 12 13 -5 12 -8 -2 -24z"/>
<path d="M1744 2476 c-6 -26 1 -46 17 -46 12 0 12 57 -1 65 -5 3 -12 -5 -16
-19z"/>
<path d="M1733 2398 c-17 -4 -43 -22 -57 -39 -14 -17 -30 -27 -36 -24 -5 3
-10 -2 -10 -13 0 -10 -14 -32 -30 -49 -27 -27 -35 -30 -60 -23 -23 7 -30 5
-30 -6 0 -8 10 -14 26 -14 16 0 23 -4 18 -11 -4 -7 -24 -9 -51 -6 -50 5 -56
-14 -7 -23 43 -8 11 -24 -41 -21 -43 2 -40 -14 5 -22 14 -2 4 -5 -25 -6 -38
-2 -45 -4 -30 -11 11 -5 34 -9 50 -9 26 0 45 17 140 126 60 68 111 119 113
113 3 -7 -15 -31 -39 -54 -57 -55 -142 -156 -137 -162 5 -5 74 67 121 126 l27
35 -2 -83 c-2 -60 -7 -85 -18 -92 -12 -8 -10 -15 17 -39 l31 -30 7 127 c9 174
14 183 13 24 -1 -72 2 -135 5 -139 4 -3 7 52 8 123 1 124 5 184 15 193 2 3 2
-59 0 -137 -3 -78 -1 -144 4 -147 15 -9 16 7 11 156 l-6 145 -32 -8z m-31
-218 l-9 -75 -2 61 c0 34 2 83 7 110 6 45 7 46 10 14 1 -19 -2 -69 -6 -110z"/>
<path d="M1951 2385 c-18 -8 -53 -15 -77 -15 -24 0 -44 -4 -44 -10 0 -5 21
-10 48 -10 33 0 43 -3 32 -10 -11 -7 -12 -12 -3 -21 9 -9 16 -5 30 17 20 32
58 39 87 15 27 -22 31 -3 6 24 -27 29 -33 29 -79 10z"/>
<path d="M1260 2084 c-14 -25 -52 -51 -95 -66 -19 -6 -19 -6 3 -13 12 -4 22
-11 22 -16 0 -18 -24 -20 -60 -4 l-39 18 -26 -32 c-25 -29 -31 -31 -95 -31
-37 0 -82 3 -100 6 -30 6 -31 9 -26 39 7 37 20 31 -114 51 -32 5 -41 2 -46
-11 -5 -13 -8 -14 -15 -3 -6 8 -9 0 -9 -24 0 -36 8 -47 23 -31 4 3 2 12 -4 20
-9 10 -8 13 5 13 9 0 16 5 16 11 0 6 12 9 28 7 21 -2 28 -9 30 -31 4 -31 27
-32 27 -1 0 10 8 20 18 22 14 3 17 -4 17 -44 l0 -47 -90 7 c-73 6 -90 5 -90
-6 0 -11 22 -14 97 -15 104 -1 120 2 104 21 -8 10 4 11 57 5 138 -15 233 -19
227 -9 -3 6 -21 10 -40 10 l-34 0 23 25 c23 24 23 24 66 8 41 -16 43 -16 56 2
8 10 14 26 14 36 0 19 33 36 38 20 2 -6 10 -11 17 -11 7 0 15 -10 18 -21 5
-18 11 -20 34 -14 36 9 39 13 24 28 -11 9 -14 9 -18 0 -6 -17 -23 -17 -23 0 0
8 -11 20 -25 27 l-25 14 25 26 c28 29 31 40 12 40 -8 0 -20 -12 -27 -26z"/>
<path d="M1357 2104 c-13 -14 3 -20 42 -16 23 2 38 8 35 13 -6 10 -67 12 -77
3z"/>
<path d="M1440 2056 c0 -9 -7 -16 -15 -16 -8 0 -15 -4 -15 -9 0 -13 25 -20 49
-14 16 4 21 1 21 -15 0 -12 -4 -24 -10 -27 -20 -13 -9 -25 17 -19 19 5 30 2
39 -11 8 -10 17 -16 20 -12 11 11 -5 39 -26 44 -11 3 -20 14 -20 24 0 10 -10
25 -22 34 -13 8 -22 19 -20 22 2 4 -1 9 -7 11 -6 2 -11 -3 -11 -12z"/>
<path d="M559 2012 c-32 -23 -37 -34 -42 -77 -3 -33 -1 -52 7 -57 9 -5 10 -28
2 -93 -10 -81 -13 -88 -40 -102 -16 -9 -52 -16 -80 -16 -50 0 -86 -17 -86 -41
0 -14 -126 -86 -150 -86 -26 0 -42 -25 -39 -62 5 -55 -9 -82 -57 -112 -74 -47
-97 -107 -42 -106 l23 1 -24 13 -23 13 48 39 c92 75 94 78 94 139 0 51 2 55
23 55 13 0 27 4 32 9 6 5 38 23 73 41 42 22 62 38 62 50 0 26 16 33 41 20 17
-10 33 -5 95 24 72 34 106 33 43 -2 -48 -27 -64 -40 -58 -46 3 -4 30 9 59 29
37 25 56 32 65 25 15 -12 26 -3 18 16 -3 8 0 21 7 29 6 8 9 19 5 25 -3 5 2 10
14 10 11 0 23 5 26 10 4 6 -5 10 -20 10 -20 0 -26 4 -23 18 2 10 11 16 21 14
9 -2 17 2 17 8 0 5 -7 10 -15 10 -22 0 -18 18 5 25 11 4 18 10 15 15 -3 5 -12
7 -19 4 -16 -6 -29 36 -20 60 3 9 2 16 -4 16 -6 0 -9 15 -8 33 4 47 4 47 26
47 11 0 20 5 20 10 0 19 -55 8 -91 -18z m31 -42 c0 -23 -4 -30 -20 -30 -13 0
-20 7 -20 19 0 24 16 36 23 19 3 -8 6 -6 6 5 2 30 11 19 11 -13z m-2 -147 c-2
-47 -7 -78 -15 -80 -6 -2 -13 6 -16 19 -3 17 -5 15 -6 -9 0 -18 -6 -33 -11
-33 -10 0 -9 10 9 125 l9 50 2 -55 c1 -30 6 -64 11 -75 6 -14 8 5 4 58 -3 49
-1 77 6 77 6 0 9 -29 7 -77z"/>
<path d="M1867 2033 c-13 -12 -7 -25 9 -19 10 4 25 -3 40 -19 13 -14 32 -25
42 -25 46 0 124 -35 153 -68 17 -19 36 -32 44 -28 16 6 122 -20 139 -33 6 -5
35 -11 63 -13 32 -3 67 -14 89 -29 30 -20 37 -31 39 -62 1 -21 -1 -33 -5 -27
-5 8 -14 3 -26 -13 -11 -14 -53 -39 -96 -57 -98 -40 -109 -52 -73 -83 20 -17
28 -33 29 -62 1 -39 1 -39 -43 -47 -25 -4 -49 -13 -55 -19 -11 -12 15 -9 72 7
13 4 22 2 22 -4 0 -6 -10 -13 -22 -15 -13 -3 -3 -3 21 -1 25 2 46 6 48 8 2 2
-2 27 -8 56 -12 57 -4 72 31 63 10 -3 27 0 37 7 16 10 16 11 -5 7 -12 -3 -20
-1 -16 4 3 5 10 9 16 9 6 0 30 16 53 34 30 25 45 32 53 24 6 -6 8 -16 6 -22
-5 -14 33 -52 42 -43 4 4 -4 15 -17 26 -15 13 -19 20 -10 21 11 0 11 4 -2 18
-10 10 -17 24 -17 30 0 20 -13 14 -45 -21 -16 -19 -37 -37 -45 -40 -8 -4 -22
-11 -30 -15 -66 -38 -80 -40 -103 -14 -18 20 -13 32 13 32 31 0 135 48 173 80
l38 32 32 -29 c18 -15 55 -43 84 -61 54 -35 71 -58 53 -76 -8 -8 -9 -5 -5 9 6
18 5 18 -12 -2 -18 -22 -18 -22 -43 -3 -27 21 -40 25 -40 11 0 -5 17 -17 38
-27 20 -11 37 -25 38 -32 1 -6 2 -28 3 -48 l1 -37 50 6 c28 3 79 4 113 0 l62
-5 -3 -74 c-3 -64 -1 -75 17 -91 12 -9 21 -20 21 -24 0 -10 -60 -19 -86 -13
-23 6 -24 10 -24 95 0 85 -1 89 -24 95 -13 3 -35 4 -47 1 l-24 -4 23 -8 c20
-7 22 -13 22 -86 0 -46 4 -79 10 -79 6 0 10 35 11 83 1 67 2 76 10 52 5 -16 7
-58 4 -92 -6 -59 -5 -63 14 -63 36 0 23 -17 -23 -30 -28 -8 -70 -10 -113 -6
-37 3 -151 11 -253 16 -102 6 -193 13 -202 16 -13 4 -18 0 -18 -13 0 -15 -2
-16 -10 -3 -6 9 -5 17 1 21 6 3 10 9 10 13 -1 3 0 7 0 9 1 1 3 35 4 76 2 44 8
76 15 81 7 4 8 10 3 13 -18 11 -36 -12 -38 -49 -3 -58 -4 -58 -23 -40 -34 30
-268 133 -279 123 -8 -9 25 -26 87 -47 36 -12 100 -43 142 -68 74 -45 78 -48
72 -77 -4 -16 -7 -31 -8 -32 -5 -5 -86 40 -98 54 -11 14 -8 14 20 -1 18 -9 39
-15 45 -13 7 3 -10 14 -38 26 -27 12 -70 37 -96 56 -60 43 -115 71 -158 80
-29 6 -33 5 -28 -8 5 -14 2 -14 -19 -5 -26 12 -40 6 -29 -11 3 -6 20 -11 37
-11 33 0 146 -56 188 -94 43 -38 109 -76 122 -71 8 3 22 -1 33 -9 11 -9 15
-16 8 -16 -6 0 -15 5 -18 10 -3 6 -11 10 -17 10 -17 0 13 -31 40 -41 19 -7 23
-14 18 -32 -3 -12 -6 -40 -6 -62 -1 -86 -32 -84 -144 5 -77 61 -104 76 -71 40
10 -11 14 -20 8 -20 -16 0 -46 37 -33 42 7 2 -30 40 -82 85 -52 45 -113 102
-137 128 -23 26 -46 43 -49 40 -4 -4 40 -52 98 -108 123 -117 119 -128 -5 -13
-47 43 -88 76 -91 74 -8 -9 261 -243 354 -307 40 -28 36 -40 -5 -15 -50 32
-186 136 -280 216 -93 79 -126 100 -82 52 22 -25 211 -178 289 -235 73 -53
141 -85 125 -59 -3 6 5 10 19 10 53 0 31 -17 -52 -39 -48 -13 -93 -25 -99 -27
-7 -2 -10 -10 -7 -19 4 -10 0 -15 -10 -15 -10 0 -16 9 -16 24 0 14 -5 28 -12
32 -8 5 -9 2 -5 -9 8 -22 1 -21 -34 4 -16 11 -29 27 -29 35 0 8 -15 31 -33 51
-19 21 -37 46 -40 56 -4 10 -17 17 -31 17 -21 0 -26 -6 -32 -35 -5 -28 -14
-39 -39 -49 -18 -8 -36 -23 -39 -33 -3 -10 -19 -27 -36 -36 -30 -18 -42 -44
-16 -34 8 3 20 -1 27 -9 7 -8 18 -13 25 -10 8 3 17 -2 22 -11 7 -12 13 -13 28
-5 17 10 17 11 2 12 -10 0 -18 6 -18 14 0 10 -9 14 -27 13 -38 -3 -38 27 0 31
22 3 26 6 17 16 -13 16 2 30 43 40 22 5 27 12 27 36 0 17 5 30 10 30 6 0 10
-3 10 -7 0 -5 12 -15 28 -24 15 -8 36 -33 47 -55 11 -21 27 -43 34 -48 27 -17
61 -58 55 -67 -9 -16 -37 -10 -30 6 3 8 3 15 1 15 -5 0 -76 -39 -90 -50 -5 -4
-35 -18 -65 -31 -30 -13 -57 -26 -60 -30 -3 -3 -41 -25 -85 -47 -44 -22 -88
-47 -98 -54 -18 -13 -18 -14 2 -32 23 -21 109 -36 97 -18 -4 7 -16 12 -26 12
-27 0 -50 11 -50 24 0 14 169 96 176 85 7 -12 65 -11 84 1 17 11 10 13 -37 10
-40 -2 -41 2 -6 26 18 11 43 17 73 15 39 -1 53 4 92 34 26 19 50 35 53 35 3 0
15 9 27 20 29 26 210 84 219 69 4 -8 10 -5 18 7 9 17 10 17 11 2 0 -9 -5 -20
-11 -23 -16 -10 -60 -117 -54 -133 7 -18 24 -6 23 16 -2 23 22 92 31 92 5 0 6
-23 3 -51 -4 -41 -2 -51 9 -47 9 3 13 18 10 46 l-3 42 41 0 c22 0 43 5 47 11
4 8 -8 10 -40 8 -32 -3 -46 0 -46 8 0 7 9 13 19 13 11 0 23 5 26 10 4 6 -5 10
-20 10 -15 0 -24 4 -20 10 3 6 -1 13 -10 16 -14 6 -15 16 -10 58 8 54 19 69
48 60 27 -8 20 13 -8 23 -14 4 -21 12 -17 19 5 7 49 7 137 2 377 -23 380 -23
378 -36 -2 -6 2 -12 7 -12 6 0 10 5 10 10 0 6 4 10 9 10 5 0 9 -21 9 -48 l1
-47 -80 4 c-51 2 -85 -1 -92 -8 -8 -8 12 -11 75 -11 l87 0 6 -45 c8 -52 26
-73 45 -50 10 12 9 18 -9 32 -20 16 -22 26 -19 97 l3 79 73 27 72 28 0 -93 c0
-56 4 -97 11 -100 16 -11 -15 -40 -72 -66 -27 -13 -47 -29 -45 -35 3 -7 -5
-15 -17 -19 -19 -6 -20 -8 -4 -12 9 -2 40 9 67 26 l50 31 0 -140 c0 -87 4
-140 10 -140 6 0 10 56 10 149 0 123 3 150 15 155 16 6 21 51 6 60 -4 3 -11
63 -14 133 -4 71 -10 163 -13 207 l-7 79 -59 -6 c-46 -4 -61 -2 -65 9 -3 9
-19 14 -42 13 -32 -1 -34 -2 -11 -9 l25 -8 -25 -1 c-14 -1 -36 -4 -50 -8 -25
-6 -25 -6 -7 15 18 20 18 20 0 25 -10 2 11 2 47 -1 70 -5 80 2 15 12 -22 3
-41 5 -42 6 -2 0 -3 5 -3 10 0 6 17 10 38 10 27 0 33 -3 22 -10 -9 -6 -10 -10
-3 -10 6 0 15 5 18 10 10 16 25 12 25 -7 1 -15 3 -15 19 5 11 12 24 22 30 22
15 0 23 18 16 39 -3 11 -15 19 -30 19 -24 0 -91 34 -135 70 -20 16 -24 27 -21
66 2 36 -1 46 -13 46 -9 0 -16 -8 -16 -18 0 -10 -5 -23 -11 -29 -20 -20 56
-102 100 -109 22 -4 36 -22 15 -21 -11 1 -18 -4 -17 -10 3 -15 -13 -17 -22 -3
-3 6 -1 10 5 10 6 0 -2 11 -18 25 -34 29 -51 33 -31 8 9 -12 3 -10 -18 5 -18
13 -35 27 -38 32 -3 5 -11 7 -18 4 -7 -2 -24 7 -37 21 -29 31 -15 33 17 3 25
-23 31 -13 10 16 -7 9 -24 18 -37 20 -41 4 -69 24 -63 44 7 27 -68 72 -142 88
-33 6 -91 21 -130 33 -38 12 -75 19 -82 17 -6 -3 -19 6 -28 20 -19 29 -93 64
-135 64 -18 0 -42 12 -63 30 -35 30 -48 35 -60 23z m933 -484 c33 1 41 -1 30
-9 -12 -8 -13 -10 -1 -10 8 0 24 8 35 17 12 10 10 6 -4 -9 -23 -24 -29 -25
-78 -19 -45 6 -56 5 -65 -9 -8 -13 -13 -15 -22 -6 -20 18 12 59 39 51 12 -4
41 -6 66 -6z m119 -216 c0 -38 -3 -60 -7 -51 -9 22 -6 118 3 118 3 0 5 -30 4
-67z m-869 -274 c25 -22 36 -36 25 -30 -28 14 -92 70 -80 70 6 0 30 -18 55
-40z m-201 -210 c-14 -14 -27 -18 -41 -13 -21 6 -21 7 3 20 13 7 32 13 42 14
15 0 15 -2 -4 -21z"/>
<path d="M886 1894 c-9 -25 -7 -64 4 -64 6 0 10 18 10 40 0 43 -4 50 -14 24z"/>
<path d="M927 1903 c-12 -11 -8 -48 7 -68 12 -17 14 -14 12 28 -1 45 -5 54
-19 40z"/>
<path d="M1026 1902 c-3 -6 6 -13 21 -17 45 -10 61 -28 68 -77 l7 -45 -50 5
c-30 2 -52 0 -56 -7 -5 -7 8 -11 39 -11 25 0 44 -4 41 -9 -3 -5 1 -14 9 -21 8
-7 15 -23 15 -36 0 -13 4 -24 9 -24 5 0 9 42 8 93 -2 83 -4 95 -27 119 -27 29
-74 46 -84 30z"/>
<path d="M1204 1868 c2 -13 10 -22 18 -21 7 2 28 -13 46 -31 18 -19 42 -38 54
-42 12 -3 46 -22 76 -41 62 -40 196 -103 218 -103 29 0 13 17 -28 30 -57 16
-118 48 -118 60 0 6 -10 10 -21 10 -12 0 -38 10 -58 22 -28 18 -32 23 -18 26
10 2 24 -3 30 -11 15 -18 87 -33 87 -17 0 5 -13 10 -30 10 -16 0 -30 4 -30 9
0 5 16 5 38 -1 80 -20 85 -21 78 -10 -3 6 -27 14 -51 18 -25 3 -43 10 -40 14
3 5 -14 11 -37 15 -24 4 -55 14 -70 21 -15 8 -37 14 -48 14 -12 0 -36 11 -54
25 -40 31 -47 31 -42 3z"/>
<path d="M819 1863 c-11 -13 -11 -17 -1 -20 26 -9 11 -25 -18 -20 -16 4 -32 2
-35 -3 -4 -6 9 -10 29 -10 30 0 36 -4 36 -21 0 -16 -6 -20 -27 -19 -50 4 -73
0 -73 -10 0 -6 15 -8 38 -4 30 5 43 2 57 -12 18 -19 16 -19 -66 -25 -92 -6
-97 -12 -8 -9 39 1 61 -3 72 -14 9 -9 23 -16 32 -16 24 0 154 -68 210 -110 46
-34 95 -59 95 -47 0 10 -175 123 -210 137 -51 19 -58 30 -14 19 49 -11 64 -11
64 0 0 4 -21 11 -47 14 -27 3 -60 10 -75 16 -27 10 -28 12 -28 91 0 81 -6 94
-31 63z"/>
<path d="M1160 1843 c0 -13 220 -170 263 -188 42 -17 67 -19 67 -5 0 6 -9 10
-20 10 -32 0 -97 37 -200 114 -105 78 -110 82 -110 69z"/>
<path d="M908 1793 c-30 -8 -20 -23 15 -23 26 0 74 17 57 21 -26 5 -58 6 -72
2z"/>
<path d="M1254 1694 c89 -85 131 -116 109 -81 -4 6 -8 15 -8 18 0 3 -27 28
-60 56 -63 52 -104 95 -75 78 13 -7 13 -6 2 7 -7 8 -25 15 -40 15 -24 0 -17
-9 72 -93z"/>
<path d="M1243 1753 c4 -7 46 -42 93 -80 47 -37 81 -69 75 -71 -13 -4 -5 -22
10 -22 6 0 7 5 4 10 -10 16 11 12 25 -5 11 -13 10 -14 -4 -9 -35 14 -13 -7 33
-31 27 -13 52 -29 56 -34 3 -6 12 -8 19 -5 8 3 17 1 20 -4 12 -20 -22 -20 -50
-1 -38 26 -84 51 -84 45 0 -9 101 -76 115 -76 8 0 15 -4 15 -9 0 -25 -23 -16
-85 31 -37 29 -62 54 -56 56 13 4 5 22 -10 22 -6 0 -7 -4 -4 -10 11 -18 -12
-10 -30 10 -16 17 -16 20 -3 15 24 -9 17 24 -8 38 -17 9 -17 9 -6 -5 9 -11 10
-18 2 -23 -10 -6 -134 89 -174 134 -11 11 -24 21 -29 21 -17 0 24 -39 138
-132 176 -142 236 -199 225 -213 -15 -19 -26 -110 -12 -101 7 4 12 16 12 26 0
23 38 90 51 90 5 0 9 10 9 22 0 16 3 19 11 11 7 -7 11 -58 10 -142 -1 -76 2
-131 7 -131 15 0 23 30 13 49 -6 10 -8 42 -5 72 3 30 6 77 7 104 2 45 5 50 27
53 20 3 22 2 12 -11 -10 -12 -8 -15 13 -19 14 -3 25 -1 25 3 0 5 16 9 35 9 39
0 43 6 18 26 -22 16 -37 18 -28 3 5 -7 -8 -8 -41 -3 -55 7 -64 11 -64 25 0 6
4 7 10 4 5 -3 26 -3 46 1 20 4 31 10 25 14 -7 3 -21 24 -32 46 -22 40 -45 64
-63 64 -6 -1 3 -12 19 -25 36 -30 34 -30 -34 -5 -29 12 -56 18 -59 15 -3 -3 6
-18 21 -33 22 -21 27 -23 27 -9 0 20 1 20 34 7 14 -5 26 -14 26 -20 0 -7 -6
-7 -20 0 -23 12 -40 6 -40 -16 0 -25 -16 -15 -50 33 -19 26 -36 41 -38 34 -2
-7 8 -26 24 -42 47 -49 21 -41 -47 14 -110 91 -244 193 -236 180z m437 -228
c0 -10 -10 -15 -29 -15 -42 0 -48 18 -9 23 18 2 34 5 36 5 1 1 2 -5 2 -13z"/>
<path d="M511 1611 c-25 -13 -40 -26 -34 -28 21 -7 96 40 82 51 -2 1 -24 -9
-48 -23z"/>
<path d="M2565 1620 c17 -18 17 -20 2 -14 -24 9 -21 -3 4 -16 14 -8 24 -8 32
-1 8 6 18 6 27 1 8 -6 20 -10 25 -10 17 0 -39 40 -57 40 -9 0 -20 5 -23 10 -3
6 -11 10 -17 10 -6 0 -3 -9 7 -20z"/>
<path d="M1670 1624 c0 -11 87 -128 111 -150 26 -24 99 -42 99 -25 0 6 -18 14
-40 17 -36 6 -47 15 -98 85 -51 70 -72 91 -72 73z"/>
<path d="M2512 1549 c1 -13 8 -23 13 -21 15 3 12 35 -3 40 -9 3 -13 -3 -10
-19z"/>
<path d="M920 1542 c0 -4 22 -20 49 -34 44 -25 49 -25 64 -10 15 15 19 13 45
-16 21 -23 34 -30 47 -26 10 4 21 1 26 -7 6 -11 11 -11 21 -1 14 14 28 16 28
3 0 -17 53 -91 66 -91 6 0 14 -6 17 -14 3 -7 18 -16 34 -19 15 -3 57 -31 92
-61 36 -31 70 -56 78 -56 10 0 13 26 13 115 0 70 -4 115 -10 115 -9 0 -16
-118 -12 -189 1 -23 0 -23 -31 9 -41 42 -111 90 -131 90 -9 0 -16 4 -16 9 0 5
-9 11 -19 14 -11 2 -32 29 -46 58 -34 68 -32 65 -53 46 -11 -10 -22 -13 -32
-7 -8 5 -17 7 -21 4 -4 -2 -21 9 -37 25 -26 27 -32 28 -53 17 -28 -14 -42 -11
-81 15 -29 21 -38 23 -38 11z"/>
<path d="M2466 1451 c-6 -10 123 -21 139 -12 6 3 -10 9 -35 13 -64 9 -98 9
-104 -1z"/>
<path d="M2483 1413 c18 -5 25 -53 7 -53 -5 0 -10 9 -10 20 0 11 -4 20 -10 20
-5 0 -10 -8 -10 -19 0 -17 -5 -18 -47 -10 -44 9 -63 6 -50 -7 3 -4 26 -9 52
-11 39 -5 45 -9 45 -28 0 -24 17 -35 52 -35 17 0 19 4 14 25 -6 25 -5 25 54
25 57 0 60 -1 60 -24 0 -15 7 -26 20 -29 16 -4 20 0 20 19 0 20 5 24 30 24 17
0 30 5 30 10 0 6 -16 10 -36 10 -33 0 -36 2 -32 25 8 37 -8 40 -24 4 -13 -30
-14 -30 -68 -24 -64 8 -57 5 -62 29 -2 14 4 22 22 27 18 5 12 7 -25 7 -27 0
-42 -2 -32 -5z"/>
<path d="M2570 1410 c0 -5 16 -10 35 -10 19 0 35 5 35 10 0 6 -16 10 -35 10
-19 0 -35 -4 -35 -10z"/>
<path d="M2836 1335 c-4 -46 -3 -82 3 -93 8 -12 10 8 11 76 0 50 -2 92 -4 92
-2 0 -6 -34 -10 -75z"/>
<path d="M2288 1394 c-4 -5 -7 -29 -6 -52 0 -33 4 -42 18 -42 14 0 19 10 22
43 3 23 1 46 -3 52 -5 5 -10 -6 -10 -25 l-2 -35 -6 35 c-3 19 -9 30 -13 24z"/>
<path d="M2869 1393 c-7 -57 -6 -153 2 -153 5 0 9 36 9 80 0 44 -2 80 -5 80
-3 0 -5 -3 -6 -7z"/>
<path d="M1846 1333 c-9 -9 -7 -51 3 -57 5 -3 11 8 13 25 5 29 -3 45 -16 32z"/>
<path d="M1570 1245 c0 -30 5 -55 10 -55 6 0 10 25 10 55 0 30 -4 55 -10 55
-5 0 -10 -25 -10 -55z"/>
<path d="M1901 1271 c-9 -16 -10 -26 -2 -34 13 -13 25 12 19 40 -3 16 -5 15
-17 -6z"/>
<path d="M1930 1267 c0 -9 4 -17 9 -17 6 0 7 -15 4 -33 -3 -24 0 -37 14 -48
27 -24 169 -119 177 -119 4 0 5 9 1 20 -9 29 2 42 26 29 18 -9 20 -8 17 8 -2
10 -8 18 -15 18 -6 0 -40 23 -75 51 -35 28 -75 55 -89 59 -13 4 -34 17 -46 28
-20 18 -23 18 -23 4z m111 -75 c31 -23 34 -28 25 -49 -6 -12 -14 -23 -17 -23
-13 0 -27 26 -32 55 -4 28 -5 29 -12 8 -4 -13 -10 -23 -14 -23 -15 0 -31 25
-31 48 0 20 4 22 23 16 12 -4 38 -18 58 -32z m67 -54 c14 -14 16 -44 3 -53
-15 -9 -40 23 -34 45 6 23 14 25 31 8z"/>
<path d="M2245 1236 l-30 -14 56 -1 c30 -1 60 4 67 11 9 9 12 9 12 -4 0 -13
22 -16 133 -22 72 -4 143 -10 156 -13 15 -4 22 -2 18 5 -4 5 -69 14 -144 18
-76 5 -120 10 -98 12 22 2 105 -2 185 -9 113 -10 136 -15 105 -20 -34 -6 -31
-7 19 -5 105 2 74 21 -56 34 -209 22 -388 25 -423 8z"/>
<path d="M1506 1203 c-11 -11 -6 -23 9 -23 8 0 21 -15 29 -32 8 -19 15 -26 15
-16 2 38 -36 88 -53 71z"/>
<path d="M1456 1156 c-10 -22 -24 -52 -30 -66 -13 -27 -3 -90 13 -90 18 0 41
12 41 22 0 6 -7 7 -15 4 -22 -8 -30 20 -15 52 8 15 12 33 11 40 -1 8 2 19 7
25 14 19 22 46 14 51 -4 2 -15 -15 -26 -38z"/>
<path d="M2906 1164 c-11 -28 -7 -134 5 -134 7 0 9 13 5 38 -4 20 -2 52 3 69
10 33 -2 56 -13 27z"/>
<path d="M2330 1138 c-20 -21 -26 -38 -14 -38 3 0 14 10 23 22 13 16 23 19 37
13 18 -8 18 -9 -3 -12 -17 -3 -23 -13 -29 -49 -7 -49 4 -71 30 -61 11 5 16 20
16 51 0 26 5 46 13 49 8 3 7 10 -7 26 -24 27 -40 27 -66 -1z"/>
<path d="M2830 1078 c0 -45 2 -79 4 -77 9 11 15 159 6 159 -6 0 -10 -35 -10
-82z"/>
<path d="M2870 1095 c0 -36 0 -67 0 -70 0 -3 3 -4 6 -2 9 4 13 137 3 137 -5 0
-9 -29 -9 -65z"/>
<path d="M2499 1123 c-17 -44 -5 -62 14 -20 15 34 19 37 44 31 40 -10 43 -12
43 -40 0 -14 4 -22 10 -19 33 21 -14 75 -65 75 -29 0 -37 -5 -46 -27z"/>
<path d="M2542 1108 c-8 -8 -12 -45 -12 -101 0 -75 2 -88 15 -83 8 3 15 1 15
-5 0 -6 5 -7 11 -4 6 4 9 26 8 49 -1 22 1 55 5 72 7 31 -7 84 -22 84 -4 0 -13
-5 -20 -12z"/>
<path d="M1921 1013 c12 -14 68 -43 84 -43 3 0 5 5 5 10 0 6 -6 10 -14 10 -7
0 -25 9 -39 20 -32 25 -56 27 -36 3z"/>
<path d="M2650 1010 c20 -13 100 -13 100 0 0 6 -26 10 -57 10 -41 0 -54 -3
-43 -10z"/>
<path d="M2152 947 c-15 -18 -52 -105 -52 -123 0 -8 5 -14 10 -14 6 0 10 10
10 23 0 13 11 46 25 72 24 49 27 67 7 42z"/>
<path d="M2420 950 c20 -13 73 -13 65 0 -3 6 -23 10 -43 10 -28 0 -33 -3 -22
-10z"/>
<path d="M2650 940 c0 -5 14 -10 30 -10 17 0 30 5 30 10 0 6 -13 10 -30 10
-16 0 -30 -4 -30 -10z"/>
<path d="M2062 897 c-12 -26 -22 -51 -22 -56 0 -6 -5 -13 -12 -17 -8 -5 -9 0
-5 17 6 22 5 21 -19 -6 -18 -21 -24 -24 -19 -10 15 44 17 55 7 55 -5 0 -15
-20 -21 -44 -14 -58 -14 -61 4 -46 13 10 15 9 15 -11 1 -22 2 -23 14 -6 8 10
19 16 26 15 7 -2 13 9 15 23 2 15 13 45 25 69 12 23 20 46 18 52 -3 7 -14 -10
-26 -35z"/>
<path d="M2090 879 c-32 -67 -37 -89 -20 -89 6 0 10 8 10 18 0 9 11 41 25 71
14 30 23 56 20 59 -2 3 -18 -24 -35 -59z"/>
<path d="M2700 905 c-35 -11 -82 -13 -212 -8 -122 4 -168 3 -168 -5 0 -8 45
-12 143 -14 l142 -3 -75 -25 c-56 -19 -96 -25 -160 -25 -60 0 -84 -3 -83 -12
2 -6 -6 -14 -16 -18 -24 -7 -56 -43 -47 -52 3 -4 22 1 41 10 20 9 41 17 47 17
19 0 -46 -44 -219 -147 -89 -54 -163 -101 -163 -105 0 -27 65 8 302 163 168
110 224 134 471 204 31 9 57 21 57 26 0 11 -5 11 -60 -6z m-360 -109 c0 -2
-20 -11 -45 -19 -51 -18 -58 -15 -17 7 25 14 62 21 62 12z"/>
<path d="M1283 865 c-40 -22 -54 -45 -29 -45 9 0 16 4 16 10 0 5 10 16 23 24
17 12 38 13 92 8 50 -6 79 -4 104 6 20 8 36 10 40 4 8 -12 81 -23 81 -12 0 19
-27 23 -157 24 -118 2 -139 -1 -170 -19z"/>
<path d="M1936 854 c-21 -29 -129 -112 -163 -125 -13 -5 -23 -15 -23 -23 0
-11 -44 -37 -72 -42 -5 -1 -11 -2 -15 -3 -4 0 -2 -6 4 -12 14 -14 81 20 147
75 80 67 156 138 156 147 0 16 -15 9 -34 -17z"/>
<path d="M2795 772 c-4 -44 -9 -101 -11 -128 -2 -27 -7 -65 -10 -85 -4 -22 -2
-39 5 -43 7 -5 11 6 11 33 0 21 5 41 11 43 11 4 19 258 8 258 -4 0 -10 -35
-14 -78z"/>
<path d="M1153 819 c-32 -9 -50 -25 -40 -36 3 -3 16 2 29 11 12 9 32 16 45 16
12 0 25 5 28 10 7 12 -18 12 -62 -1z"/>
<path d="M2555 796 c-85 -14 -220 -54 -211 -63 3 -3 30 2 60 11 69 22 272 55
296 49 10 -3 21 0 24 6 9 14 -64 13 -169 -3z"/>
<path d="M2545 754 c-193 -34 -201 -37 -282 -98 -40 -30 -94 -67 -121 -82
l-49 -28 -12 -111 c-13 -133 -14 -175 -3 -175 5 0 12 54 16 120 6 108 19 180
31 168 2 -2 0 -48 -6 -101 -5 -54 -7 -102 -4 -107 11 -18 22 -1 19 27 -2 16
-1 22 2 16 10 -23 25 -14 18 12 -4 15 -2 25 5 25 6 0 11 -5 11 -11 0 -5 4 -8
9 -5 5 3 7 15 4 26 -3 11 0 20 6 20 6 0 11 -4 11 -10 0 -5 5 -10 11 -10 6 0 9
9 6 20 -3 11 -1 23 4 26 5 3 9 -2 9 -10 0 -8 5 -18 11 -22 9 -5 10 1 5 20 -3
14 -2 26 3 26 14 0 133 121 126 128 -3 3 -28 -16 -55 -43 -30 -29 -50 -43 -50
-34 0 26 75 90 116 100 64 15 261 39 319 39 30 0 57 5 60 10 13 21 -238 -2
-379 -34 -47 -11 -56 -11 -45 -1 16 15 224 53 341 62 43 3 81 11 85 16 9 14
-118 1 -285 -28 -156 -28 -152 -28 -152 -16 0 10 19 14 205 47 77 13 159 24
182 24 23 0 45 5 48 10 10 16 -69 10 -220 -16z m-215 -82 c0 -14 -39 -46 -47
-39 -3 4 2 16 12 27 19 21 35 26 35 12z m-125 -119 c-5 -21 -7 -48 -7 -60 1
-12 -3 -25 -8 -28 -11 -7 -5 99 6 116 12 20 16 7 9 -28z m-56 -30 c-5 -21 -9
-53 -9 -72 0 -19 -3 -32 -6 -28 -9 9 6 137 16 137 4 0 4 -17 -1 -37z"/>
<path d="M1860 706 c-58 -35 -143 -86 -190 -113 -84 -49 -143 -72 -138 -54 3
10 -1 11 -29 11 -17 -1 -17 -2 -1 -13 14 -12 12 -18 -28 -66 -42 -50 -53 -72
-36 -70 4 0 25 23 47 51 27 35 53 56 79 65 22 7 61 27 87 44 40 25 51 28 69
19 21 -11 40 -6 40 11 0 5 -10 9 -22 9 -17 0 -6 10 37 35 l60 34 130 -6 c94
-4 127 -3 120 5 -6 6 -56 13 -115 14 l-105 3 58 37 c53 35 67 49 50 48 -5 -1
-55 -29 -113 -64z"/>
<path d="M1575 710 c3 -5 19 -10 36 -10 16 0 29 5 29 10 0 6 -16 10 -36 10
-21 0 -33 -4 -29 -10z"/>
<path d="M1392 608 c5 -15 98 -24 98 -10 0 5 -17 12 -37 16 -55 9 -65 8 -61
-6z"/>
<path d="M1795 609 c-4 -5 38 -9 101 -9 59 0 104 3 100 7 -11 11 -195 13 -201
2z"/>
<path d="M1320 579 c-30 -16 -62 -38 -70 -47 -8 -10 -28 -26 -43 -36 -15 -9
-25 -21 -22 -27 4 -5 -8 -17 -24 -27 -17 -9 -29 -22 -26 -29 2 -7 -9 -20 -25
-30 -17 -9 -30 -23 -30 -30 0 -19 5 -17 42 17 24 22 42 30 71 30 23 0 36 4 32
10 -3 6 -18 10 -33 10 l-27 0 25 20 c14 10 25 24 25 31 0 9 17 12 59 10 37 -2
56 1 52 8 -4 5 -22 7 -41 4 -38 -6 -50 11 -15 22 11 3 20 10 20 15 0 5 23 6
50 3 33 -4 50 -2 50 5 0 6 -19 12 -42 14 l-43 3 38 17 c20 9 37 22 37 27 0 14
3 15 -60 -20z"/>
<path d="M1600 598 c-20 -9 -22 -12 -8 -15 10 -3 28 3 40 11 26 19 7 21 -32 4z"/>
<path d="M2611 589 c-29 -11 -25 -16 14 -22 21 -3 30 -10 31 -23 3 -54 2 -53
42 -47 35 5 36 5 17 -10 -24 -18 -21 -22 23 -32 20 -4 32 -3 32 4 0 6 -10 11
-22 11 -21 0 -21 1 -3 14 18 13 18 14 -3 25 -11 6 -33 11 -47 11 -22 0 -25 3
-20 21 4 13 0 27 -11 40 -19 21 -20 21 -53 8z"/>
<path d="M2355 536 c-22 -34 -46 -114 -35 -121 9 -6 20 18 20 46 0 35 28 79
46 72 11 -4 15 -2 12 7 -8 24 -26 22 -43 -4z"/>
<path d="M2041 515 c-20 -11 -25 -22 -28 -72 -2 -32 -8 -99 -13 -150 -6 -51
-10 -107 -10 -124 0 -51 14 -23 17 34 7 121 29 291 39 294 7 2 6 -30 -3 -99
-12 -103 -17 -205 -9 -197 3 2 12 70 20 150 9 80 18 153 22 162 7 20 -2 20
-35 2z"/>
<path d="M2515 523 c-28 -7 -43 -23 -22 -23 10 0 14 -5 11 -14 -3 -9 5 -15 25
-19 38 -8 39 -19 6 -41 -14 -9 -25 -21 -25 -26 0 -13 50 -13 70 0 12 7 8 10
-15 10 l-30 1 28 15 c15 8 27 19 27 25 0 5 -12 15 -27 21 -39 17 -38 16 -18
38 19 21 13 23 -30 13z"/>
<path d="M1385 502 c-43 -27 -151 -145 -196 -215 -41 -64 -49 -97 -23 -97 11
0 13 6 9 19 -4 12 3 34 18 58 44 68 162 198 200 218 20 11 37 23 37 28 0 11
-13 8 -45 -11z"/>
<path d="M2373 478 c-16 -32 -25 -160 -13 -178 12 -18 12 -14 10 70 -1 36 1
62 4 60 5 -5 13 -72 15 -124 1 -11 4 -16 8 -12 9 9 4 189 -6 199 -4 4 -12 -3
-18 -15z"/>
<path d="M1400 477 c-28 -22 -210 -258 -210 -273 0 -8 7 -14 15 -14 8 0 15 -9
15 -20 0 -23 10 -26 28 -8 8 8 8 15 1 24 -13 16 64 132 137 208 25 26 42 51
39 54 -10 10 -87 -78 -152 -171 -30 -42 -59 -77 -64 -77 -6 0 -7 6 -3 13 14
23 157 202 187 234 31 33 35 51 7 30z"/>
<path d="M1891 426 c-22 -35 -41 -69 -41 -75 0 -7 -9 -39 -21 -73 -11 -34 -19
-76 -16 -93 2 -16 -6 -61 -18 -100 -13 -38 -22 -72 -20 -74 8 -8 25 12 25 30
0 10 6 19 13 19 7 0 18 21 25 48 7 26 17 64 23 85 12 46 35 48 53 6 8 -19 16
-27 20 -20 8 12 -1 51 -12 51 -4 0 -15 7 -24 14 -15 11 -16 18 -7 45 6 17 15
31 19 31 24 0 40 -15 40 -36 0 -13 5 -24 11 -24 6 0 8 -9 4 -20 -3 -11 -2 -20
3 -20 5 0 12 32 16 71 7 74 1 105 -10 52 -6 -31 -6 -31 -34 -15 -25 15 -27 20
-24 65 2 27 10 57 19 66 17 20 19 31 6 31 -4 0 -27 -29 -50 -64z m3 -72 c-9
-22 -18 -50 -20 -63 -2 -13 -8 -29 -15 -35 -21 -20 10 100 34 132 18 23 18 5
1 -34z"/>
<path d="M1714 389 c-10 -17 11 -25 61 -23 53 2 69 11 34 18 -66 13 -89 14
-95 5z"/>
<path d="M1178 343 c-14 -28 -19 -29 -88 -20 -8 1 -17 -2 -20 -8 -3 -6 12 -11
33 -13 20 -2 37 -7 37 -13 0 -5 -4 -9 -10 -9 -5 0 -10 -4 -10 -10 0 -24 27 -6
55 37 37 58 39 63 26 63 -5 0 -16 -12 -23 -27z"/>
<path d="M1610 312 c0 -6 18 -13 40 -16 22 -3 58 -9 80 -12 23 -3 40 -2 40 4
0 5 -26 12 -57 16 -31 4 -67 9 -80 12 -13 4 -23 2 -23 -4z"/>
<path d="M1540 241 c0 -16 10 -18 128 -26 71 -4 112 -3 112 3 0 5 -46 13 -102
17 -57 3 -111 9 -120 11 -10 3 -18 1 -18 -5z"/>
<path d="M1085 200 c-21 -22 -33 -40 -26 -40 11 0 81 67 81 77 0 12 -22 -3
-55 -37z"/>
<path d="M1025 220 c3 -5 17 -10 31 -10 13 0 24 5 24 10 0 6 -14 10 -31 10
-17 0 -28 -4 -24 -10z"/>
<path d="M1914 86 c-3 -8 -13 -12 -25 -9 -10 3 -19 0 -19 -6 0 -14 25 -14 51
-1 22 12 24 7 9 -21 -8 -14 -7 -19 3 -19 22 0 26 10 15 41 -11 31 -25 38 -34
15z"/>
</g>
</svg>
