<?xml version="1.0" standalone="no"?>
<!DOCTYPE svg PUBLIC "-//W3C//DTD SVG 20010904//EN"
 "http://www.w3.org/TR/2001/REC-SVG-20010904/DTD/svg10.dtd">
<svg version="1.0" xmlns="http://www.w3.org/2000/svg"
 width="300.000000pt" height="209.000000pt" viewBox="0 0 300.000000 209.000000"
 preserveAspectRatio="xMidYMid meet">
<metadata>
Created by potrace 1.10, written by Peter Selinger 2001-2011
</metadata>
<g transform="translate(0.000000,209.000000) scale(0.100000,-0.100000)"
fill="#000000" stroke="none">
<path d="M1488 1938 c5 -5 16 -8 23 -6 8 3 3 7 -10 11 -17 4 -21 3 -13 -5z"/>
<path d="M1490 1900 c0 -5 5 -10 10 -10 6 0 10 5 10 10 0 6 -4 10 -10 10 -5 0
-10 -4 -10 -10z"/>
<path d="M1486 1855 c-8 -22 5 -76 17 -72 19 6 17 87 -3 87 -4 0 -10 -7 -14
-15z"/>
<path d="M1490 1747 c0 -25 -72 -89 -189 -166 -64 -42 -134 -95 -157 -117 -58
-60 -80 -151 -54 -220 14 -35 7 -41 -17 -15 -19 20 -19 20 -77 -33 -54 -51
-57 -55 -53 -95 2 -22 6 -44 10 -48 4 -3 7 -26 7 -50 0 -39 -2 -43 -25 -43
-24 0 -25 2 -25 69 0 39 -4 73 -10 76 -11 7 -12 -4 -10 -87 1 -52 -1 -58 -19
-58 -18 0 -21 6 -21 45 0 25 -4 45 -10 45 -11 0 -13 -16 -10 -67 1 -18 -3 -33
-9 -33 -6 0 -11 14 -11 30 0 21 -5 30 -16 30 -13 0 -15 11 -14 63 3 80 2 87
-10 87 -6 0 -10 -42 -10 -105 0 -90 -2 -105 -16 -105 -14 0 -16 10 -12 74 3
41 1 81 -3 88 -11 17 -10 47 -9 -374 l1 -358 -79 0 -79 0 -7 31 c-11 54 -7
189 5 189 6 0 9 7 6 14 -4 10 -1 13 9 9 7 -3 14 0 14 6 0 6 -9 11 -21 11 -19
0 -20 5 -18 110 1 60 6 107 11 104 4 -3 8 0 8 5 0 6 -7 11 -15 11 -12 0 -15
17 -15 89 0 55 4 92 11 97 8 4 7 9 -2 15 -11 7 -10 9 4 9 10 0 15 5 12 10 -3
6 -22 10 -41 10 -26 0 -34 4 -34 18 0 26 11 34 27 20 11 -9 15 -7 20 10 3 12
10 22 17 22 7 0 6 4 -2 9 -8 4 -13 12 -12 17 1 5 -6 21 -16 35 l-17 26 -22
-26 c-27 -32 -37 -59 -25 -63 5 -2 12 -18 16 -35 5 -26 3 -33 -9 -33 -25 0
-31 -20 -12 -40 15 -16 16 -31 10 -102 -5 -57 -12 -87 -24 -96 -14 -12 -14
-13 0 -9 13 4 16 -10 18 -104 2 -106 2 -109 -19 -109 -16 0 -20 -4 -16 -16 3
-9 6 -18 6 -20 0 -2 7 -4 16 -4 15 0 16 -10 10 -77 -3 -42 -6 -91 -6 -110 l0
-33 -79 0 -78 0 -6 68 c-4 37 -7 113 -7 170 0 84 3 102 15 102 18 0 20 26 3
34 -7 3 -3 3 10 0 16 -4 22 -1 22 10 0 10 -9 16 -24 16 -22 0 -23 4 -29 83
-10 118 -8 175 3 182 6 4 8 16 5 28 -2 12 -2 16 1 10 8 -18 24 -16 24 2 0 8
-9 15 -21 15 -20 0 -20 4 -18 157 1 87 4 152 7 145 5 -17 22 -15 22 3 0 10
-10 15 -30 15 -25 0 -30 4 -30 23 0 31 22 77 38 77 6 0 12 5 12 10 0 6 -4 10
-10 10 -5 0 -10 10 -10 23 0 13 -11 34 -25 47 -15 15 -25 34 -25 52 0 16 -4
27 -9 24 -5 -3 -7 -14 -4 -24 2 -10 -9 -34 -27 -57 -17 -21 -28 -45 -26 -52 3
-8 -2 -13 -12 -13 -15 -1 -15 -2 -1 -13 23 -17 39 -52 39 -81 0 -21 -5 -26
-25 -26 -28 0 -32 -17 -10 -46 10 -14 14 -47 15 -124 0 -124 -6 -150 -31 -150
-24 0 -24 -11 1 -38 18 -19 20 -35 20 -152 l0 -130 -30 0 c-21 0 -30 -5 -30
-16 0 -11 6 -14 23 -10 12 3 16 3 10 0 -21 -9 -15 -34 8 -34 20 0 21 -4 15
-46 -3 -26 -6 -102 -6 -170 l0 -124 -50 0 -50 0 0 -145 0 -145 1460 0 1460 0
0 145 0 145 -50 0 -50 0 0 133 c0 72 -3 149 -6 170 -6 33 -4 37 15 37 23 0 29
25 9 34 -7 3 -3 3 10 0 16 -4 22 -1 22 10 0 11 -9 16 -30 16 l-30 0 0 135 c0
74 4 135 8 135 5 0 14 11 20 25 10 22 9 25 -7 25 -24 0 -31 36 -31 159 1 68 5
102 15 115 22 29 18 46 -10 46 -20 0 -25 5 -25 25 0 33 20 75 37 75 7 0 13 5
13 10 0 6 -7 10 -15 10 -8 0 -12 6 -9 13 2 7 -9 31 -26 52 -18 23 -29 47 -27
57 3 10 1 21 -4 24 -5 3 -9 -8 -9 -24 0 -18 -10 -37 -25 -52 -14 -13 -25 -34
-25 -47 0 -13 -4 -23 -10 -23 -5 0 -10 -4 -10 -10 0 -5 6 -10 13 -10 15 0 37
-46 37 -77 0 -19 -5 -23 -30 -23 -20 0 -30 -5 -30 -15 0 -18 17 -20 22 -3 3 7
6 -58 7 -145 2 -153 2 -157 -18 -157 -12 0 -21 -7 -21 -15 0 -18 16 -20 24 -2
3 6 3 2 1 -10 -3 -12 -1 -24 5 -28 11 -7 13 -77 4 -188 -7 -72 -8 -77 -30 -77
-15 0 -24 -6 -24 -16 0 -11 6 -14 23 -10 12 3 16 3 10 0 -18 -8 -16 -34 2 -34
12 0 15 -19 15 -109 0 -59 -3 -136 -6 -170 l-7 -61 -78 0 -79 0 0 49 c0 26 -3
76 -6 110 -6 51 -4 61 9 61 8 0 18 7 21 16 9 23 8 24 -15 24 -19 0 -20 5 -18
109 2 86 5 108 16 104 7 -3 13 0 13 6 0 6 -6 11 -14 11 -10 0 -15 24 -20 86
-6 73 -5 89 9 104 19 21 13 40 -12 40 -12 0 -14 7 -9 33 4 17 11 33 16 35 12
4 2 31 -25 63 l-21 26 -17 -23 c-9 -13 -17 -30 -17 -38 0 -9 -5 -16 -11 -16
-6 0 -3 -7 5 -16 9 -8 16 -20 16 -26 0 -7 4 -7 13 1 16 13 27 5 27 -21 0 -14
-8 -18 -35 -18 -25 0 -35 -4 -35 -16 0 -8 4 -13 8 -10 5 3 10 -42 11 -99 2
-90 0 -105 -13 -105 -9 0 -16 -5 -16 -11 0 -5 4 -8 8 -5 5 3 10 -44 11 -104 2
-105 1 -110 -18 -110 -12 0 -21 -5 -21 -11 0 -6 7 -9 14 -6 10 4 13 1 9 -9 -3
-7 0 -14 6 -14 12 0 16 -175 5 -204 -5 -13 -22 -16 -86 -16 l-79 0 2 366 c1
201 -1 368 -5 371 -7 8 -9 -13 -6 -99 1 -56 -1 -68 -14 -68 -14 0 -16 16 -16
105 0 63 -4 105 -10 105 -12 0 -13 -7 -10 -87 1 -52 -1 -63 -14 -63 -11 0 -16
-9 -16 -30 0 -16 -5 -30 -11 -30 -6 0 -10 15 -9 33 3 51 1 67 -10 67 -5 0 -10
-20 -10 -45 0 -39 -3 -45 -21 -45 -18 0 -20 6 -19 58 2 83 1 94 -10 87 -5 -3
-10 -37 -10 -76 0 -67 -1 -69 -25 -69 -23 0 -25 4 -25 43 0 24 3 47 7 50 4 4
8 26 10 48 4 40 1 44 -53 94 -56 52 -57 52 -76 33 -25 -25 -32 -19 -18 16 26
69 4 160 -54 220 -23 22 -88 72 -146 110 -107 70 -200 150 -200 173 0 7 -4 13
-10 13 -5 0 -10 -6 -10 -13z m-1260 -299 c0 -21 -5 -28 -20 -28 -15 0 -20 7
-20 28 0 34 20 58 32 39 4 -6 8 -24 8 -39z m2580 1 c0 -22 -5 -29 -20 -29 -21
0 -27 30 -14 64 10 25 34 0 34 -35z m-2650 -49 c0 -5 -4 -10 -10 -10 -5 0 -10
5 -10 10 0 6 5 10 10 10 6 0 10 -4 10 -10z m30 0 c0 -5 -4 -10 -10 -10 -5 0
-10 5 -10 10 0 6 5 10 10 10 6 0 10 -4 10 -10z m30 0 c0 -5 -5 -10 -11 -10 -5
0 -7 5 -4 10 3 6 8 10 11 10 2 0 4 -4 4 -10z m27 -7 c-4 -3 -7 0 -7 7 0 7 3
10 7 7 3 -4 3 -10 0 -14z m2510 0 c-4 -3 -7 0 -7 7 0 7 3 10 7 7 3 -4 3 -10 0
-14z m38 7 c3 -5 1 -10 -4 -10 -6 0 -11 5 -11 10 0 6 2 10 4 10 3 0 8 -4 11
-10z m35 0 c0 -5 -4 -10 -10 -10 -5 0 -10 5 -10 10 0 6 5 10 10 10 6 0 10 -4
10 -10z m30 0 c0 -5 -4 -10 -10 -10 -5 0 -10 5 -10 10 0 6 5 10 10 10 6 0 10
-4 10 -10z m-1690 -240 c0 -11 -7 -20 -15 -20 -8 0 -15 9 -15 20 0 11 7 20 15
20 8 0 15 -9 15 -20z m60 0 c0 -11 -7 -20 -15 -20 -8 0 -15 9 -15 20 0 11 7
20 15 20 8 0 15 -9 15 -20z m60 0 c0 -11 -6 -20 -14 -20 -18 0 -29 16 -21 30
11 18 35 11 35 -10z m50 0 c0 -11 -7 -20 -15 -20 -8 0 -15 9 -15 20 0 11 7 20
15 20 8 0 15 -9 15 -20z m60 0 c0 -11 -7 -20 -15 -20 -8 0 -15 9 -15 20 0 11
7 20 15 20 8 0 15 -9 15 -20z m60 0 c0 -11 -7 -20 -15 -20 -8 0 -15 9 -15 20
0 11 7 20 15 20 8 0 15 -9 15 -20z m60 0 c0 -13 -7 -20 -20 -20 -13 0 -20 7
-20 20 0 13 7 20 20 20 13 0 20 -7 20 -20z m50 0 c0 -11 -7 -20 -15 -20 -8 0
-15 9 -15 20 0 11 7 20 15 20 8 0 15 -9 15 -20z m60 0 c0 -11 -7 -20 -15 -20
-8 0 -15 9 -15 20 0 11 7 20 15 20 8 0 15 -9 15 -20z m60 0 c0 -11 -7 -20 -15
-20 -8 0 -15 9 -15 20 0 11 7 20 15 20 8 0 15 -9 15 -20z m55 0 c0 -8 -8 -16
-17 -18 -13 -2 -18 3 -18 18 0 15 5 20 18 18 9 -2 17 -10 17 -18z m55 0 c0
-11 -7 -20 -15 -20 -8 0 -15 9 -15 20 0 11 7 20 15 20 8 0 15 -9 15 -20z m60
0 c0 -11 -7 -20 -15 -20 -8 0 -15 9 -15 20 0 11 7 20 15 20 8 0 15 -9 15 -20z
m-1710 -80 c0 -5 -4 -10 -10 -10 -5 0 -10 5 -10 10 0 6 5 10 10 10 6 0 10 -4
10 -10z m40 0 c0 -5 -4 -10 -10 -10 -5 0 -10 5 -10 10 0 6 5 10 10 10 6 0 10
-4 10 -10z m30 0 c0 -5 -4 -10 -10 -10 -5 0 -10 5 -10 10 0 6 5 10 10 10 6 0
10 -4 10 -10z m40 0 c0 -5 -4 -10 -10 -10 -5 0 -10 5 -10 10 0 6 5 10 10 10 6
0 10 -4 10 -10z m2500 0 c0 -5 -4 -10 -10 -10 -5 0 -10 5 -10 10 0 6 5 10 10
10 6 0 10 -4 10 -10z m40 0 c0 -5 -4 -10 -10 -10 -5 0 -10 5 -10 10 0 6 5 10
10 10 6 0 10 -4 10 -10z m30 0 c0 -5 -5 -10 -11 -10 -5 0 -7 5 -4 10 3 6 8 10
11 10 2 0 4 -4 4 -10z m40 0 c0 -5 -4 -10 -10 -10 -5 0 -10 5 -10 10 0 6 5 10
10 10 6 0 10 -4 10 -10z m-890 -91 c0 -24 -4 -29 -25 -29 -21 0 -25 5 -25 28
0 15 5 33 12 40 17 17 38 -4 38 -39z m-976 25 c12 -32 6 -54 -14 -54 -15 0
-20 7 -20 28 0 41 22 58 34 26z m60 0 c13 -35 7 -54 -19 -54 -21 0 -25 5 -25
28 0 16 3 32 7 35 11 12 31 7 37 -9z m54 -22 c3 -27 0 -32 -17 -32 -16 0 -21
6 -21 28 0 53 33 56 38 4z m800 0 c3 -27 0 -32 -17 -32 -16 0 -21 6 -21 28 0
53 33 56 38 4z m110 0 c3 -27 0 -32 -17 -32 -14 0 -21 6 -21 19 0 56 33 67 38
13z m-472 -92 c69 -39 131 -111 149 -173 10 -35 15 -96 15 -199 l0 -148 -220
0 -220 0 0 149 c0 176 13 229 73 297 33 37 127 104 147 104 3 0 28 -13 56 -30z
m-711 -50 c9 -18 15 -56 15 -103 0 -81 -5 -86 -69 -87 -23 0 -23 1 -20 83 3
58 9 91 22 110 22 35 33 34 52 -3z m205 -2 c15 -25 20 -51 20 -110 l0 -78 -56
0 -56 0 3 83 c6 126 47 174 89 105z m971 -8 c14 -25 19 -56 19 -107 l0 -73
-55 0 -55 0 0 78 c0 60 5 84 20 110 25 41 46 39 71 -8z m191 -1 c12 -23 18
-57 18 -106 0 -69 -1 -73 -22 -73 -63 1 -68 7 -68 87 0 77 20 138 43 131 7 -3
20 -20 29 -39z m-1675 14 c-4 -3 -10 -3 -14 0 -3 4 0 7 7 7 7 0 10 -3 7 -7z
m1940 0 c-4 -3 -10 -3 -14 0 -3 4 0 7 7 7 7 0 10 -3 7 -7z m-2300 -100 c-4 -3
-10 -3 -14 0 -3 4 0 7 7 7 7 0 10 -3 7 -7z m50 1 c-3 -3 -12 -4 -19 -1 -8 3
-5 6 6 6 11 1 17 -2 13 -5z m40 -1 c-4 -3 -10 -3 -14 0 -3 4 0 7 7 7 7 0 10
-3 7 -7z m2480 0 c-4 -3 -10 -3 -14 0 -3 4 0 7 7 7 7 0 10 -3 7 -7z m50 1 c-3
-3 -12 -4 -19 -1 -8 3 -5 6 6 6 11 1 17 -2 13 -5z m40 -1 c-4 -3 -10 -3 -14 0
-3 4 0 7 7 7 7 0 10 -3 7 -7z m-2390 -130 c-4 -3 -10 -3 -14 0 -3 4 0 7 7 7 7
0 10 -3 7 -7z m30 0 c-4 -3 -10 -3 -14 0 -3 4 0 7 7 7 7 0 10 -3 7 -7z m30 0
c-4 -3 -10 -3 -14 0 -3 4 0 7 7 7 7 0 10 -3 7 -7z m2000 0 c-4 -3 -10 -3 -14
0 -3 4 0 7 7 7 7 0 10 -3 7 -7z m30 0 c-4 -3 -10 -3 -14 0 -3 4 0 7 7 7 7 0
10 -3 7 -7z m30 0 c-4 -3 -10 -3 -14 0 -3 4 0 7 7 7 7 0 10 -3 7 -7z m-1497
-163 l0 -80 -55 0 -55 0 0 64 c0 69 11 110 38 139 16 18 18 18 44 -12 26 -29
28 -38 28 -111z m956 89 c8 -17 14 -57 14 -99 l0 -70 -55 0 -55 0 0 79 c0 71
3 83 26 111 29 34 43 30 70 -21z m-1179 10 c7 -13 13 -59 13 -101 l0 -78 -46
0 -46 0 3 78 c6 113 44 165 76 101z m1365 -10 c12 -22 18 -57 18 -101 l0 -68
-46 0 -46 0 4 88 c4 123 33 155 70 81z m-2062 -301 l0 -48 -35 0 -35 0 0 47
c0 29 6 53 17 65 15 17 17 17 35 2 13 -12 18 -31 18 -66z m100 -2 c0 -51 -2
-54 -40 -48 -29 4 -30 7 -30 52 0 32 6 54 17 65 16 16 18 16 35 -5 11 -14 18
-39 18 -64z m100 -2 c0 -37 -3 -44 -19 -44 -11 0 -26 -3 -35 -6 -24 -9 -23 98
1 121 16 16 18 16 35 -5 11 -14 18 -39 18 -66z m98 7 l5 -51 -37 0 -36 0 0 49
c0 60 23 92 48 67 8 -8 17 -37 20 -65z m80 67 c7 -7 12 -36 12 -65 0 -52 0
-53 -30 -53 -30 0 -30 1 -30 53 0 65 20 93 48 65z m100 0 c7 -7 12 -36 12 -65
l0 -53 -36 0 -37 0 6 51 c8 69 29 93 55 67z m96 -4 c10 -10 16 -33 16 -65 l0
-49 -36 0 -37 0 5 50 c3 27 11 56 18 65 15 19 15 19 34 -1z m100 0 c10 -10 16
-33 16 -65 l0 -49 -35 0 c-35 0 -35 1 -35 43 0 23 7 53 16 65 18 26 18 26 38
6z m100 0 c10 -10 16 -33 16 -65 l0 -49 -35 0 -35 0 0 47 c0 29 6 53 17 65 20
22 18 22 37 2z m116 -66 l0 -48 -35 0 -35 0 0 47 c0 29 6 53 17 65 15 17 17
17 35 2 13 -12 18 -31 18 -66z m100 0 c0 -32 -4 -48 -12 -48 -7 0 -23 -3 -35
-6 -22 -6 -23 -3 -23 47 0 35 6 59 17 71 15 17 17 17 35 2 13 -12 18 -31 18
-66z m100 -4 c0 -44 0 -44 -35 -44 l-35 0 0 49 c0 33 6 55 17 66 16 16 18 16
35 -5 11 -14 18 -39 18 -66z m100 0 c0 -44 0 -44 -35 -44 l-35 0 0 49 c0 33 6
55 17 66 16 16 18 16 35 -5 11 -14 18 -39 18 -66z m98 7 l5 -51 -37 0 -36 0 0
55 c0 41 4 56 18 64 26 15 44 -10 50 -68z m80 67 c7 -7 12 -36 12 -65 0 -52 0
-53 -30 -53 -30 0 -30 1 -30 53 0 65 20 93 48 65z m112 -63 c0 -54 0 -55 -30
-55 -30 0 -30 1 -30 53 0 60 13 81 42 66 14 -8 18 -21 18 -64z m84 59 c10 -10
16 -33 16 -65 l0 -49 -35 0 c-35 0 -35 1 -35 43 0 23 7 53 16 65 18 26 18 26
38 6z m100 0 c10 -10 16 -33 16 -65 l0 -49 -35 0 c-35 0 -35 1 -35 43 0 23 7
53 16 65 18 26 18 26 38 6z m116 -66 l0 -48 -35 0 -35 0 0 47 c0 29 6 53 17
65 15 17 17 17 35 2 13 -12 18 -31 18 -66z m100 2 c0 -42 -3 -48 -23 -52 -12
-2 -28 -3 -35 0 -19 6 -15 92 5 114 15 17 17 17 35 2 13 -12 18 -31 18 -64z
m100 -2 l0 -48 -35 0 -35 0 0 49 c0 32 6 55 16 66 15 15 18 15 35 -1 14 -12
19 -31 19 -66z m100 -4 c0 -44 0 -44 -35 -44 l-35 0 0 49 c0 33 6 55 17 66 16
16 18 16 35 -5 11 -14 18 -39 18 -66z m98 7 l5 -51 -37 0 -36 0 0 49 c0 60 23
92 48 67 8 -8 17 -37 20 -65z m100 0 l5 -51 -37 0 -36 0 0 55 c0 41 4 56 18
64 26 15 44 -10 50 -68z m80 67 c7 -7 12 -36 12 -65 0 -52 0 -53 -30 -53 -30
0 -30 1 -30 53 0 65 20 93 48 65z m96 -4 c10 -10 16 -33 16 -65 l0 -49 -36 0
-37 0 5 50 c3 27 11 56 18 65 15 19 15 19 34 -1z m100 0 c19 -19 22 -110 4
-116 -7 -3 -23 -2 -35 0 -20 4 -23 11 -23 46 0 23 7 52 16 64 18 26 18 26 38
6z m100 0 c10 -10 16 -33 16 -65 0 -43 -3 -49 -24 -55 -14 -3 -30 -3 -35 1
-16 10 -13 88 5 113 18 26 18 26 38 6z m100 0 c19 -19 22 -110 4 -116 -7 -3
-23 -2 -35 0 -20 4 -23 11 -23 46 0 23 7 52 16 64 18 26 18 26 38 6z"/>
<path d="M2775 1720 c3 -5 11 -10 16 -10 6 0 7 5 4 10 -3 6 -11 10 -16 10 -6
0 -7 -4 -4 -10z"/>
<path d="M213 1713 c4 -3 10 -3 14 0 3 4 0 7 -7 7 -7 0 -10 -3 -7 -7z"/>
</g>
</svg>
